<?xml version="1.0" encoding="UTF-8"?>
<svg version="1.1" xmlns="http://www.w3.org/2000/svg" width="1040" height="788">
<path d="M0 0 C15.42152131 -0.04687974 30.84303722 -0.08206669 46.26461315 -0.10362434 C53.42635173 -0.11390339 60.58804584 -0.12789862 67.74975586 -0.15087891 C73.99746922 -0.1709167 80.24515034 -0.18374089 86.49289495 -0.18817699 C89.79597521 -0.19076693 93.09894268 -0.19785918 96.40199852 -0.21146011 C100.10423503 -0.22609108 103.80628391 -0.2279731 107.50854492 -0.22705078 C108.58389496 -0.23424133 109.659245 -0.24143188 110.7671814 -0.24884033 C133.56397835 -0.18784601 133.56397835 -0.18784601 140 6 C146.68576733 14.18459174 151.01602708 24.56990256 155.83203125 33.90625 C158.76931412 39.58493697 161.79967313 45.20759263 164.875 50.8125 C169.20635341 58.70830707 173.49290491 66.62640431 177.75 74.5625 C182.37768809 83.18313031 187.06848756 91.76638638 191.81323242 100.32293701 C198.65305327 112.6577593 205.32522629 125.0734576 211.9206543 137.54052734 C215.94066462 145.13725963 219.99354985 152.71303744 224.125 160.25 C228.565425 168.35136111 232.95395641 176.47929361 237.3125 184.625 C237.62405029 185.20718292 237.93560059 185.78936584 238.2565918 186.38919067 C240.17482807 189.97423247 242.09193807 193.55987568 244.00872803 197.14569092 C246.72041268 202.21826597 249.43339392 207.29014601 252.14779663 212.36126709 C253.09563095 214.13261407 254.04258064 215.90443431 254.98950195 217.67626953 C257.97461283 223.25413652 260.98512033 228.80688682 264.14794922 234.28637695 C265 236 265 236 265 238 C268.16514062 235.32310882 269.76969048 231.90185251 271.58984375 228.26171875 C271.93025696 227.59332977 272.27067017 226.9249408 272.62139893 226.23629761 C273.35156678 224.80189593 274.07928252 223.36624388 274.80477905 221.92947388 C276.71595221 218.14672375 278.64718573 214.37425128 280.578125 210.6015625 C280.96087082 209.85300491 281.34361664 209.10444733 281.73796082 208.33320618 C286.15329517 199.71698588 290.81129162 191.23967029 295.48583984 182.76220703 C298.3563461 177.52568531 301.17459682 172.26094989 304 167 C308.76161732 158.14040766 313.55793449 149.30093671 318.38623047 140.47753906 C322.51117679 132.92581915 326.57084962 125.33983936 330.625 117.75 C335.11732187 109.34085904 339.64996584 100.95839263 344.30664062 92.63891602 C347.6347512 86.68467563 350.88498458 80.69006517 354.125 74.6875 C359.77504576 64.22658282 365.48585641 53.80025429 371.25048828 43.40209961 C371.92093068 42.19256345 372.59134134 40.98300969 373.26171875 39.7734375 C373.58601868 39.18842972 373.9103186 38.60342194 374.2444458 38.00068665 C376.17724862 34.50749746 378.07925458 30.9995981 379.95703125 27.4765625 C391.42524791 6.04927381 391.42524791 6.04927381 401.87329102 2.78100586 C418.54532571 -1.38342289 436.32575053 -0.27600848 453.38208008 -0.19561768 C456.32404546 -0.18466478 459.26596546 -0.185153 462.20794773 -0.18575573 C465.04482849 -0.185485 467.88167899 -0.18002404 470.71854973 -0.17275429 C472.72671519 -0.16803268 474.73488695 -0.16629415 476.74305725 -0.16459656 C477.94619064 -0.15821671 479.14932404 -0.15183685 480.38891602 -0.14526367 C481.45159195 -0.14145187 482.51426788 -0.13764008 483.60914612 -0.13371277 C486 0 486 0 487 1 C487.09734299 2.73064765 487.12371477 4.46531031 487.12304783 6.19869328 C487.12503888 7.33278789 487.12702993 8.4668825 487.12908131 9.63534361 C487.12616847 10.89698897 487.12325563 12.15863432 487.12025452 13.45851135 C487.1206901 14.79993473 487.12156477 16.14135803 487.12284368 17.48278087 C487.12509116 21.18604378 487.12106393 24.88927803 487.11606562 28.59253728 C487.1117649 32.57960537 487.11320727 36.56667171 487.1139679 40.55374146 C487.11449337 47.46729989 487.11134411 54.38084892 487.10573006 61.29440498 C487.09761825 71.29036373 487.09500017 81.28631792 487.09374207 91.2822796 C487.09155104 107.49832896 487.08488959 123.71437329 487.07543945 139.93041992 C487.06626664 155.68693008 487.05918517 171.44343888 487.05493164 187.19995117 C487.05453756 188.65571743 487.05453756 188.65571743 487.05413551 190.14089311 C487.05283051 195.00944562 487.0515668 199.87799815 487.05032361 204.74655068 C487.03994942 245.16437061 487.02232974 285.58218502 487 326 C482.5724543 325.46011948 478.24628283 324.89005343 473.8828125 323.95703125 C467.21548471 322.72255358 460.64017725 322.65766018 453.875 322.6875 C452.59834473 322.69096436 451.32168945 322.69442871 450.00634766 322.69799805 C437.1991412 322.84499262 425.46924362 324.69308869 413.19921875 328.44921875 C411 329 411 329 407 329 C406.67 264.65 406.34 200.3 406 134 C397.77212712 148.80645599 397.77212712 148.80645599 389.6875 163.6875 C385.3682849 171.70356676 380.95073378 179.6542003 376.4375 187.5625 C371.57628014 196.09220783 366.95543125 204.72166209 362.44897461 213.44335938 C357.60874725 222.80054837 352.56697745 232.04147369 347.49560547 241.27490234 C345.00995539 245.80393046 342.53621704 250.33944629 340.0625 254.875 C339.57007813 255.77742432 339.07765625 256.67984863 338.5703125 257.60961914 C334.31512414 265.4119491 330.08279751 273.22657352 325.85351562 281.04296875 C321.78980184 288.55042567 317.70410638 296.04564712 313.60742188 303.53515625 C310.80834993 308.66000925 308.03215141 313.79653949 305.27734375 318.9453125 C304.96249527 319.53303436 304.64764679 320.12075623 304.32325745 320.72628784 C302.78485872 323.59799509 301.24930834 326.47114224 299.71899414 329.34716797 C299.16203857 330.38760254 298.60508301 331.42803711 298.03125 332.5 C297.54205078 333.4178125 297.05285156 334.335625 296.54882812 335.28125 C296.03771484 336.1784375 295.52660156 337.075625 295 338 C294.26668457 339.63702881 294.26668457 339.63702881 293.51855469 341.30712891 C290.61974756 344.4065708 290.01387497 344.43638609 285.95605469 344.68115234 C283.86108791 344.68020363 281.7659701 344.64637244 279.671875 344.5859375 C278.56773254 344.57744781 277.46359009 344.56895813 276.32598877 344.56021118 C272.7996663 344.52662627 269.27563116 344.45133107 265.75 344.375 C263.35940802 344.34490727 260.9687802 344.31753028 258.578125 344.29296875 C252.71796969 344.22681826 246.85914823 344.12641725 241 344 C234.81584704 332.6760909 228.64068154 321.34755664 222.5 310 C215.10490296 296.33933851 207.70038072 282.68404035 200.18359375 269.08984375 C199.85353333 268.49288193 199.5234729 267.8959201 199.18341064 267.28086853 C197.82161124 264.81805863 196.45980333 262.35525354 195.09759521 259.89266968 C189.68295771 250.10024358 184.36412833 240.25948583 179.08300781 230.39428711 C175.27768103 223.30949802 171.36192873 216.29647055 167.375 209.3125 C162.53384886 200.82625541 157.93565791 192.23981446 153.45092773 183.56054688 C148.13382676 173.28192769 142.57828424 163.13852091 137 153 C135.09829759 149.54261195 133.1967377 146.08514551 131.29516602 142.62768555 C130.78530403 141.70065575 130.27544205 140.77362595 129.7501297 139.81850433 C128.50008305 137.54567144 127.25003991 135.27283661 126 133 C126.00037972 133.64211562 126.00075944 134.28423123 126.00115067 134.94580489 C126.02351215 172.9739399 126.04067816 211.00207394 126.05106533 249.03021418 C126.05231609 253.59281532 126.0536104 258.15541645 126.05493164 262.71801758 C126.05519395 263.62637754 126.05545626 264.5347375 126.05572652 265.47062352 C126.06008188 280.19287963 126.0679687 294.91513184 126.0771528 309.63738564 C126.08649305 324.73549557 126.0920564 339.83360345 126.09408849 354.93171614 C126.09546295 364.25357043 126.09980936 373.57541372 126.10791647 382.89726462 C126.1131885 389.28321511 126.11480325 395.66915989 126.11350138 402.0551124 C126.11285872 405.74350193 126.11386744 409.4318722 126.11920547 413.12025833 C126.1249419 417.11291973 126.12299691 421.10555574 126.12025452 425.09822083 C126.12316736 426.27233058 126.1260802 427.44644034 126.12908131 428.65612918 C126.12709026 429.72105458 126.12509921 430.78597998 126.12304783 431.88317585 C126.12342755 432.80551653 126.12380727 433.72785721 126.1241985 434.67814761 C126 437 126 437 125 440 C98.93 440 72.86 440 46 440 C45.9906543 428.14723145 45.98130859 416.29446289 45.97167969 404.08251953 C45.93897278 366.15932302 45.88668756 328.23617612 45.82207905 290.31302107 C45.81206158 284.42254815 45.80221745 278.53207495 45.79248047 272.64160156 C45.7905391 271.46891306 45.78859772 270.29622456 45.78659752 269.08800004 C45.75557539 250.09933706 45.73859627 231.11068617 45.72680578 212.12200262 C45.71439534 192.63824602 45.68689631 173.15455287 45.64538693 153.67083633 C45.62024855 141.64808351 45.60688298 129.62543589 45.60857043 117.60265641 C45.60860018 109.35848323 45.59397538 101.11441723 45.56783572 92.87028582 C45.55318635 88.11365408 45.54498983 83.35724213 45.55419731 78.60059166 C45.56248999 74.24277027 45.55231361 69.88539032 45.52766338 65.52763437 C45.52198409 63.95412532 45.52298851 62.38057436 45.53148755 60.80707802 C45.59840655 47.25267083 43.00939288 38.22183706 34 28 C33.44957031 27.35546875 32.89914063 26.7109375 32.33203125 26.046875 C23.94037201 16.93275503 12.45499022 10.06124472 1.625 4.21875 C0.820625 3.61546875 0.820625 3.61546875 0 3 C0 2.01 0 1.02 0 0 Z " fill="#4C6C92" transform="translate(69,203)"/>
<path d="M0 0 C5.65184298 -0.05024891 11.30354985 -0.08611132 16.95556641 -0.10986328 C18.86965201 -0.11978746 20.78372302 -0.13333114 22.69775391 -0.15087891 C39.78900539 -0.30339926 56.1803784 0.61050149 72.8125 4.8125 C73.88290527 5.07820801 74.95331055 5.34391602 76.05615234 5.61767578 C93.96213605 10.17531459 110.28402591 17.40996408 124 30 C124.92554688 30.84433594 125.85109375 31.68867188 126.8046875 32.55859375 C146.77049709 51.61183863 157.59754797 77.75186645 158.30078125 105.26953125 C158.31987726 107.78378468 158.32344364 110.29819787 158.3125 112.8125 C158.30831055 114.13113037 158.30412109 115.44976074 158.29980469 116.80834961 C158.19031597 126.24825711 157.48569515 134.88578446 155 144 C154.73316406 145.08152344 154.46632813 146.16304687 154.19140625 147.27734375 C147.55009964 171.62880133 132.07837328 190.79603326 110.6171875 203.63671875 C108 205 108 205 106 205 C106 205.66 106 206.32 106 207 C106.52464844 207.11214844 107.04929687 207.22429687 107.58984375 207.33984375 C132.50165777 213.68178642 154.95981379 233.34306329 168 255 C184.47068914 284.04042559 187.95703198 320.00198945 179.4140625 352.20898438 C174.88079915 368.50914424 167.57605356 383.54232646 156 396 C155.18015625 396.89976562 154.3603125 397.79953125 153.515625 398.7265625 C121.01855628 432.85809917 74.32556439 440.70509629 29.17329788 441.9156723 C14.39947272 442.24276144 -0.38567373 442.14403665 -15.16212201 442.1343255 C-20.30249408 442.1317581 -25.44286454 442.13415056 -30.58323669 442.13571167 C-39.18025032 442.13751666 -47.77725527 442.13516704 -56.37426758 442.13037109 C-66.31772086 442.12488818 -76.26115377 442.12672672 -86.20460659 442.1321975 C-94.77747636 442.13672495 -103.35033998 442.1373823 -111.92321056 442.13475883 C-117.02965216 442.13319957 -122.13608412 442.13299359 -127.2425251 442.13629532 C-132.01897716 442.13917011 -136.79540257 442.13720573 -141.57185173 442.13140106 C-143.32752818 442.1300732 -145.08320686 442.13046802 -146.83888245 442.13266373 C-149.22376032 442.13537311 -151.60855122 442.13199729 -153.99342346 442.12698364 C-154.69649189 442.12921436 -155.39956032 442.13144509 -156.12393385 442.13374341 C-160.8858472 442.1141528 -160.8858472 442.1141528 -162 441 C-162.0987007 438.68469268 -162.13179809 436.39923165 -162.12304783 434.08339596 C-162.1247786 432.98000136 -162.1247786 432.98000136 -162.12654433 431.85431597 C-162.12921798 429.35800971 -162.12468273 426.86176632 -162.12025452 424.36546326 C-162.12069007 422.57031189 -162.12156467 420.77516058 -162.12284368 418.98000962 C-162.12509185 414.02257632 -162.121063 409.06516441 -162.11606562 404.10773385 C-162.11176589 398.77095991 -162.1132072 393.43418729 -162.1139679 388.09741211 C-162.11449344 378.84295298 -162.11134352 369.58850087 -162.10573006 360.3340435 C-162.0976191 346.953485 -162.09500025 333.57292992 -162.09374207 320.19236923 C-162.09155091 298.48574748 -162.0848891 276.77912948 -162.07543945 255.07250977 C-162.06626698 233.98071308 -162.05918534 212.88891741 -162.05493164 191.79711914 C-162.05466892 190.49803879 -162.05440619 189.19895843 -162.05413551 187.86051201 C-162.05283052 181.34371166 -162.0515668 174.82691129 -162.05032361 168.31011093 C-162.03994901 114.20673803 -162.02232897 60.10336919 -162 6 C-159.94689165 5.98192738 -157.89373654 5.96912585 -155.84057617 5.95849609 C-154.69723312 5.95079193 -153.55389008 5.94308777 -152.37590027 5.93515015 C-147.58093575 6.02725972 -143.01266151 6.71821083 -138.3125 7.625 C-137.3726123 7.80321289 -136.43272461 7.98142578 -135.46435547 8.16503906 C-108.34191284 13.58127951 -85.32101761 26.51049042 -65 45 C-64.25105469 45.66515625 -63.50210938 46.3303125 -62.73046875 47.015625 C-58.26959139 51.19485837 -54.60211817 55.93963889 -50.9375 60.8125 C-50.43516846 61.47161377 -49.93283691 62.13072754 -49.4152832 62.80981445 C-48.19247784 64.48130443 -47.08576739 66.2364125 -46 68 C-46.495 69.485 -46.495 69.485 -47 71 C-57.56 71 -68.12 71 -79 71 C-79 106.97 -79 142.94 -79 180 C-64.81 179.67 -50.62 179.34 -36 179 C-37.42047826 186.10239128 -38.88214706 192.51699034 -41.125 199.3125 C-41.45048828 200.29927734 -41.77597656 201.28605469 -42.11132812 202.30273438 C-47.70469641 218.59305217 -55.01706532 234.2714481 -62 250 C-67.61 250 -73.22 250 -79 250 C-79 289.93 -79 329.86 -79 371 C-63.16 370.505 -63.16 370.505 -47 370 C-40.11716049 369.91084369 -33.23991135 369.82622821 -26.35743904 369.80076981 C-23.32990755 369.78848318 -20.30249013 369.76895466 -17.27500916 369.74765015 C-8.69680591 369.6875155 -0.11863785 369.63184059 8.4597168 369.59863281 C13.78115835 369.57752152 19.10234984 369.54214521 24.42364693 369.49787521 C26.41635755 369.48391029 28.40911186 369.47503803 30.40186882 369.47182083 C51.86126718 369.43338627 72.08456817 367.7186225 89 353 C99.20584955 342.44818945 103.012606 327.13243863 103.3125 312.8125 C102.78224352 296.30826699 97.66297213 280.94740204 85.4375 269.375 C65.22174959 252.95454373 40.70796125 250.76404002 15.59375 250.5859375 C13.89024988 250.5671679 12.18675848 250.5475905 10.48327637 250.5272522 C6.05793473 250.47653536 1.63256315 250.43659159 -2.79290771 250.39910889 C-7.33206212 250.35868398 -11.87109853 250.30776996 -16.41015625 250.2578125 C-25.27335605 250.16177181 -34.13661565 250.07714392 -43 250 C-41.22969183 246.16062519 -39.05748952 244.00209728 -35.875 241.1875 C-35.3814502 240.74591553 -34.88790039 240.30433105 -34.37939453 239.84936523 C-32.21958291 237.92334043 -30.03691217 236.0307162 -27.8125 234.1796875 C-10.97589978 220.12655748 1.42439107 198.95334828 10 179 C10.63389648 178.95512451 11.26779297 178.91024902 11.92089844 178.86401367 C32.90177499 177.3340787 51.99737322 175.47609905 67 159 C75.316354 148.40740255 77.3385335 136.40450451 77.4375 123.3125 C77.44765137 122.36286377 77.45780273 121.41322754 77.46826172 120.43481445 C77.3066627 107.28270259 73.06662877 94.5379824 64.0078125 84.8125 C53.27779873 75.12626189 39.78877244 72.25821087 26 70 C24.82377653 66.02819424 23.75974236 62.05533129 22.80859375 58.0234375 C18.63763206 40.64237376 12.93521827 20.10417438 1.3359375 5.97265625 C0 4 0 4 0 0 Z " fill="#030303" transform="translate(791,202)"/>
<path d="M0 0 C1.24007812 -0.05285156 2.48015625 -0.10570312 3.7578125 -0.16015625 C7 1 7 1 8.33496094 2.98095703 C9.66432544 5.79880533 10.78391666 8.64416138 11.875 11.5625 C12.73333842 13.68222697 13.59796616 15.79941767 14.46875 17.9140625 C14.89414062 18.95594727 15.31953125 19.99783203 15.7578125 21.07128906 C23.32203175 38.90548209 35.63808365 54.17466458 49 68 C49.87140625 68.92296875 50.7428125 69.8459375 51.640625 70.796875 C58.56624722 77.96550151 66.05238885 84.03175326 74 90 C74.56106445 90.42716309 75.12212891 90.85432617 75.70019531 91.29443359 C83.84997995 97.49309451 92.27448527 103.22536467 100.8125 108.875 C118.84433666 120.80689974 136.16785337 133.22169594 152 148 C152.87398437 148.80824219 153.74796875 149.61648437 154.6484375 150.44921875 C166.9193369 162.21029568 176.29168214 175.90721154 184 191 C184.32339355 191.63292969 184.64678711 192.26585937 184.97998047 192.91796875 C205.44066216 233.56694211 205.78457177 281.15441497 192 324 C189.68753971 330.49412887 186.91494502 336.75769714 184 343 C183.68836914 343.68610352 183.37673828 344.37220703 183.05566406 345.07910156 C179.30226723 353.3047998 174.9264139 360.95834744 169.9375 368.5 C169.45506836 369.22968994 168.97263672 369.95937988 168.47558594 370.71118164 C165.00962133 375.81489048 161.15366629 380.4422388 157 385 C157 381.39995869 158.01119041 379.71106729 159.625 376.5 C178.63263749 335.89074156 179.70192994 288.928427 164.63183594 247.02001953 C161.1982485 237.8556639 157.107009 229.71402515 151.4375 221.75 C150.91518799 221.01346191 150.39287598 220.27692383 149.85473633 219.51806641 C145.04342677 212.85313043 139.76422794 206.85706323 134 201 C133.47736572 200.45110107 132.95473145 199.90220215 132.41625977 199.33666992 C128.12825842 194.90567409 123.56653708 191.15766528 118.5625 187.5625 C117.78189209 187.00046875 117.00128418 186.4384375 116.19702148 185.859375 C108.8349838 180.68102409 101.17370839 176.7185492 93 173 C92.04996094 172.53207031 91.09992188 172.06414062 90.12109375 171.58203125 C71.45005393 162.53868111 49.32890206 157.94524547 28.64428711 157.97558594 C27.66963501 157.9763916 26.69498291 157.97719727 25.6907959 157.97802734 C24.18676208 157.98116943 24.18676208 157.98116943 22.65234375 157.984375 C21.62814331 157.98550293 20.60394287 157.98663086 19.54870605 157.98779297 C17.03246691 157.9907265 14.51623538 157.99483103 12 158 C12.00075944 158.88225201 12.00151888 159.76450402 12.00230134 160.67349094 C12.04708727 212.9984705 12.08138817 265.32344802 12.10213066 317.64844292 C12.10463198 323.93546914 12.10722063 330.22249532 12.10986328 336.50952148 C12.1103879 337.76112041 12.11091252 339.01271934 12.11145304 340.30224551 C12.12014838 360.55039433 12.13591356 380.79853176 12.15430559 401.04667383 C12.17302888 421.83333331 12.18412186 442.61998685 12.18817699 463.40665442 C12.19091701 476.22628539 12.19956165 489.04588417 12.21583293 501.86550523 C12.2264298 510.66427 12.22959452 519.46301821 12.22700275 528.2617889 C12.22572567 533.3331593 12.22764105 538.40447355 12.23841095 543.47583389 C12.2482207 548.12933313 12.24858537 552.78273902 12.24179779 557.43624277 C12.24096022 559.10948355 12.24343142 560.78273043 12.24976636 562.45595943 C12.37708663 598.19660688 2.40196447 627.27143885 -23 653 C-50.00196919 680.04667444 -87.75264635 694.21415796 -125.53927612 694.25204468 C-150.20160841 694.21269204 -171.69408534 687.08929282 -190 670 C-200.01266751 659.75447975 -206.48582691 646.02301714 -209 632 C-209.226875 630.845 -209.45375 629.69 -209.6875 628.5 C-212.07912069 601.71384829 -203.14675733 575.98877544 -186.04296875 555.48046875 C-176.83026362 544.79517924 -166.94396154 535.54456505 -155 528 C-154.38431152 527.60973633 -153.76862305 527.21947266 -153.13427734 526.81738281 C-124.93525787 509.27164769 -88.55373703 500.78628945 -55.75 507.5625 C-54.75564941 507.76008911 -54.75564941 507.76008911 -53.74121094 507.96166992 C-45.69491098 509.88514674 -38.66118452 513.64823177 -31 517 C-30.67 346.72 -30.34 176.44 -30 1 C-9 0 -9 0 0 0 Z " fill="#C5903F" transform="translate(602,35)"/>
<path d="M0 0 C15.42152131 -0.04687974 30.84303722 -0.08206669 46.26461315 -0.10362434 C53.42635173 -0.11390339 60.58804584 -0.12789862 67.74975586 -0.15087891 C73.99746922 -0.1709167 80.24515034 -0.18374089 86.49289495 -0.18817699 C89.79597521 -0.19076693 93.09894268 -0.19785918 96.40199852 -0.21146011 C100.10423503 -0.22609108 103.80628391 -0.2279731 107.50854492 -0.22705078 C108.58389496 -0.23424133 109.659245 -0.24143188 110.7671814 -0.24884033 C133.56397835 -0.18784601 133.56397835 -0.18784601 140 6 C146.68576733 14.18459174 151.01602708 24.56990256 155.83203125 33.90625 C158.76931412 39.58493697 161.79967313 45.20759263 164.875 50.8125 C169.20635341 58.70830707 173.49290491 66.62640431 177.75 74.5625 C182.37768809 83.18313031 187.06848756 91.76638638 191.81323242 100.32293701 C198.65226047 112.65632958 205.32346512 125.07068497 211.91845703 137.53613281 C215.96114844 145.17532416 220.0363581 152.79395164 224.1875 160.375 C224.64890381 161.21957764 225.11030762 162.06415527 225.58569336 162.93432617 C227.67986331 166.76606466 229.77743965 170.5958378 231.88378906 174.42089844 C233.54357105 177.43507334 235.19503936 180.45368919 236.84194946 183.47491455 C237.79607854 185.21996602 238.75868683 186.96037276 239.72143555 188.70068359 C240.58055542 190.27970459 240.58055542 190.27970459 241.45703125 191.890625 C241.97241455 192.82938477 242.48779785 193.76814453 243.01879883 194.73535156 C243.34259521 195.48268555 243.6663916 196.23001953 244 197 C243.67 197.66 243.34 198.32 243 199 C241.69281006 198.86287598 240.38562012 198.72575195 239.03881836 198.58447266 C222.54853311 196.95222312 206.12387998 196.57293246 189.5625 196.375 C186.87302139 196.33763596 184.18358207 196.2977511 181.49414062 196.2578125 C174.99619029 196.16319593 168.49817249 196.07778762 162 196 C161.67 196.66 161.34 197.32 161 198 C160.69932617 197.41847168 160.39865234 196.83694336 160.08886719 196.23779297 C152.57432314 181.7227383 144.87898656 167.32008244 137 153 C135.09829796 149.54261174 133.1967377 146.08514551 131.29516602 142.62768555 C130.78530403 141.70065575 130.27544205 140.77362595 129.7501297 139.81850433 C128.50008305 137.54567144 127.25003991 135.27283661 126 133 C126.00037972 133.64211562 126.00075944 134.28423123 126.00115067 134.94580489 C126.02351215 172.9739399 126.04067816 211.00207394 126.05106533 249.03021418 C126.05231609 253.59281532 126.0536104 258.15541645 126.05493164 262.71801758 C126.05519395 263.62637754 126.05545626 264.5347375 126.05572652 265.47062352 C126.06008188 280.19287963 126.0679687 294.91513184 126.0771528 309.63738564 C126.08649305 324.73549557 126.0920564 339.83360345 126.09408849 354.93171614 C126.09546295 364.25357043 126.09980936 373.57541372 126.10791647 382.89726462 C126.1131885 389.28321511 126.11480325 395.66915989 126.11350138 402.0551124 C126.11285872 405.74350193 126.11386744 409.4318722 126.11920547 413.12025833 C126.1249419 417.11291973 126.12299691 421.10555574 126.12025452 425.09822083 C126.12316736 426.27233058 126.1260802 427.44644034 126.12908131 428.65612918 C126.12709026 429.72105458 126.12509921 430.78597998 126.12304783 431.88317585 C126.12342755 432.80551653 126.12380727 433.72785721 126.1241985 434.67814761 C126 437 126 437 125 440 C98.93 440 72.86 440 46 440 C45.9906543 428.14723145 45.98130859 416.29446289 45.97167969 404.08251953 C45.93897278 366.15932302 45.88668756 328.23617612 45.82207905 290.31302107 C45.81206158 284.42254815 45.80221745 278.53207495 45.79248047 272.64160156 C45.7905391 271.46891306 45.78859772 270.29622456 45.78659752 269.08800004 C45.75557539 250.09933706 45.73859627 231.11068617 45.72680578 212.12200262 C45.71439534 192.63824602 45.68689631 173.15455287 45.64538693 153.67083633 C45.62024855 141.64808351 45.60688298 129.62543589 45.60857043 117.60265641 C45.60860018 109.35848323 45.59397538 101.11441723 45.56783572 92.87028582 C45.55318635 88.11365408 45.54498983 83.35724213 45.55419731 78.60059166 C45.56248999 74.24277027 45.55231361 69.88539032 45.52766338 65.52763437 C45.52198409 63.95412532 45.52298851 62.38057436 45.53148755 60.80707802 C45.59840655 47.25267083 43.00939288 38.22183706 34 28 C33.44957031 27.35546875 32.89914063 26.7109375 32.33203125 26.046875 C23.94037201 16.93275503 12.45499022 10.06124472 1.625 4.21875 C0.820625 3.61546875 0.820625 3.61546875 0 3 C0 2.01 0 1.02 0 0 Z " fill="#507399" transform="translate(69,203)"/>
<path d="M0 0 C5.65184298 -0.05024891 11.30354985 -0.08611132 16.95556641 -0.10986328 C18.86965201 -0.11978746 20.78372302 -0.13333114 22.69775391 -0.15087891 C39.78900539 -0.30339926 56.1803784 0.61050149 72.8125 4.8125 C73.88290527 5.07820801 74.95331055 5.34391602 76.05615234 5.61767578 C93.96213605 10.17531459 110.28402591 17.40996408 124 30 C124.92554688 30.84433594 125.85109375 31.68867188 126.8046875 32.55859375 C146.77049709 51.61183863 157.59754797 77.75186645 158.30078125 105.26953125 C158.31987726 107.78378468 158.32344364 110.29819787 158.3125 112.8125 C158.30831055 114.13113037 158.30412109 115.44976074 158.29980469 116.80834961 C158.19031597 126.24825711 157.48569515 134.88578446 155 144 C154.73316406 145.08152344 154.46632813 146.16304687 154.19140625 147.27734375 C147.55009964 171.62880133 132.07837328 190.79603326 110.6171875 203.63671875 C108 205 108 205 106 205 C106 205.66 106 206.32 106 207 C101 208.5 101 208.5 96 210 C95.32018066 210.20641113 94.64036133 210.41282227 93.93994141 210.62548828 C69.7848404 217.93144502 45.63683475 223.79672202 20.80273438 228.27319336 C18.03802014 228.80160594 15.31336004 229.37698031 12.57250977 230.00756836 C8.15403881 231.0026551 3.73329929 231.68928041 -0.75390625 232.2890625 C-1.54022934 232.39721283 -2.32655243 232.50536316 -3.13670349 232.61679077 C-5.61150497 232.95636519 -8.08697091 233.2907758 -10.5625 233.625 C-12.25590635 233.85642734 -13.9492662 234.08819522 -15.64257812 234.3203125 C-19.76119259 234.88413964 -23.88041075 235.44334173 -28 236 C-27.61618164 235.55342041 -27.23236328 235.10684082 -26.83691406 234.64672852 C-12.02808586 217.39660654 0.98105883 199.98487415 10 179 C10.63389648 178.95512451 11.26779297 178.91024902 11.92089844 178.86401367 C32.90177499 177.3340787 51.99737322 175.47609905 67 159 C75.316354 148.40740255 77.3385335 136.40450451 77.4375 123.3125 C77.44765137 122.36286377 77.45780273 121.41322754 77.46826172 120.43481445 C77.3066627 107.28270259 73.06662877 94.5379824 64.0078125 84.8125 C53.27779873 75.12626189 39.78877244 72.25821087 26 70 C24.82377653 66.02819424 23.75974236 62.05533129 22.80859375 58.0234375 C18.63763206 40.64237376 12.93521827 20.10417438 1.3359375 5.97265625 C0 4 0 4 0 0 Z " fill="#454544" transform="translate(791,202)"/>
<path d="M0 0 C2.05310835 -0.01807262 4.10626346 -0.03087415 6.15942383 -0.04150391 C7.30276688 -0.04920807 8.44610992 -0.05691223 9.62409973 -0.06484985 C14.41906425 0.02725972 18.98733849 0.71821083 23.6875 1.625 C25.09733154 1.89231934 25.09733154 1.89231934 26.53564453 2.16503906 C53.65808716 7.58127951 76.67898239 20.51049042 97 39 C97.74894531 39.66515625 98.49789062 40.3303125 99.26953125 41.015625 C103.73040861 45.19485837 107.39788183 49.93963889 111.0625 54.8125 C111.56483154 55.47161377 112.06716309 56.13072754 112.5847168 56.80981445 C113.80752216 58.48130443 114.91423261 60.2364125 116 62 C115.67 62.99 115.34 63.98 115 65 C104.44 65 93.88 65 83 65 C83 100.97 83 136.94 83 174 C97.19 173.67 111.38 173.34 126 173 C124.54620428 180.26897861 123.00110477 186.79968422 120.6875 193.75 C120.18766602 195.25723633 120.18766602 195.25723633 119.67773438 196.79492188 C114.96999302 210.53486081 108.94869241 223.76252513 103 237 C102.67 237 102.34 237 102 237 C102 235.35 102 233.7 102 232 C101.36406921 232.05960403 100.72813843 232.11920807 100.07293701 232.18061829 C80.84123144 233.92621727 61.78947988 234.28393573 42.49542236 234.19561768 C39.45798475 234.1846367 36.42059081 234.18515416 33.38313675 234.18575573 C30.42507679 234.18548355 27.46704547 234.17999963 24.50899506 234.17275429 C23.11365727 234.16960213 21.71831631 234.16760842 20.32297516 234.16686058 C18.38750514 234.16467751 16.45204776 234.1551127 14.51660156 234.14526367 C12.87670258 234.13954597 12.87670258 234.13954597 11.20367432 234.13371277 C7.78449661 233.99100547 4.38776014 233.48396573 1 233 C1 299.33 1 365.66 1 434 C74.26 433.67 147.52 433.34 223 433 C223 433.33 223 433.66 223 434 C197.75903697 436.78899813 172.19513312 436.1509904 146.83787799 436.1343255 C141.69750592 436.1317581 136.55713546 436.13415056 131.41676331 436.13571167 C122.81974968 436.13751666 114.22274473 436.13516704 105.62573242 436.13037109 C95.68227914 436.12488818 85.73884623 436.12672672 75.79539341 436.1321975 C67.22252364 436.13672495 58.64966002 436.1373823 50.07678944 436.13475883 C44.97034784 436.13319957 39.86391588 436.13299359 34.7574749 436.13629532 C29.98102284 436.13917011 25.20459743 436.13720573 20.42814827 436.13140106 C18.67247182 436.1300732 16.91679314 436.13046802 15.16111755 436.13266373 C12.77623968 436.13537311 10.39144878 436.13199729 8.00657654 436.12698364 C7.30350811 436.12921436 6.60043968 436.13144509 5.87606615 436.13374341 C1.1141528 436.1141528 1.1141528 436.1141528 0 435 C-0.0987007 432.68469268 -0.13179809 430.39923165 -0.12304783 428.08339596 C-0.1247786 426.98000136 -0.1247786 426.98000136 -0.12654433 425.85431597 C-0.12921798 423.35800971 -0.12468273 420.86176632 -0.12025452 418.36546326 C-0.12069007 416.57031189 -0.12156467 414.77516058 -0.12284368 412.98000962 C-0.12509185 408.02257632 -0.121063 403.06516441 -0.11606562 398.10773385 C-0.11176589 392.77095991 -0.1132072 387.43418729 -0.1139679 382.09741211 C-0.11449344 372.84295298 -0.11134352 363.58850087 -0.10573006 354.3340435 C-0.0976191 340.953485 -0.09500025 327.57292992 -0.09374207 314.19236923 C-0.09155091 292.48574748 -0.0848891 270.77912948 -0.07543945 249.07250977 C-0.06626698 227.98071308 -0.05918534 206.88891741 -0.05493164 185.79711914 C-0.05466892 184.49803879 -0.05440619 183.19895843 -0.05413551 181.86051201 C-0.05283052 175.34371166 -0.0515668 168.82691129 -0.05032361 162.31011093 C-0.03994901 108.20673803 -0.02232897 54.10336919 0 0 Z " fill="#474747" transform="translate(629,208)"/>
<path d="M0 0 C6.6 0 13.2 0 20 0 C20 135.63 20 271.26 20 411 C14.72 409.68 9.44 408.36 4 407 C-16.08686606 403.65218899 -37.56262208 405.13330257 -57 411 C-58.07942871 411.32097656 -58.07942871 411.32097656 -59.18066406 411.6484375 C-83.37657014 419.13242181 -103.93443045 433.63033066 -122 451 C-122.96099609 451.86625 -122.96099609 451.86625 -123.94140625 452.75 C-142.53407936 470.00538108 -154.26939197 496.86077908 -155.5625 521.875 C-155.60568359 522.65875 -155.64886719 523.4425 -155.69335938 524.25 C-155.79853351 526.16650649 -155.89967925 528.08323333 -156 530 C-164.91835003 527.07342572 -169.26497292 518.06669597 -173.3125 510.125 C-176.52231781 503.60347755 -178.7129833 497.17844657 -180 490 C-180.226875 488.845 -180.45375 487.69 -180.6875 486.5 C-183.07912069 459.71384829 -174.14675733 433.98877544 -157.04296875 413.48046875 C-147.83026362 402.79517924 -137.94396154 393.54456505 -126 386 C-125.38431152 385.60973633 -124.76862305 385.21947266 -124.13427734 384.81738281 C-95.96584465 367.29067911 -59.38601978 358.65033868 -26.625 365.625 C-18.85249323 367.43540289 -10.9036758 369.94219683 -4 374 C-3.67 374.99 -3.34 375.98 -3 377 C-2.01 377 -1.02 377 0 377 C0 252.59 0 128.18 0 0 Z " fill="#050404" transform="translate(573,177)"/>
<path d="M0 0 C15 0 15 0 17 1 C17.91040039 2.78735352 17.91040039 2.78735352 18.84765625 5.12890625 C19.20061768 5.99104736 19.5535791 6.85318848 19.91723633 7.74145508 C20.48414185 9.13787231 20.48414185 9.13787231 21.0625 10.5625 C29.94756143 31.75574744 42.03619979 49.48254198 58 66 C58.87140625 66.92296875 59.7428125 67.8459375 60.640625 68.796875 C67.56624722 75.96550151 75.05238885 82.03175326 83 88 C83.56106445 88.42716309 84.12212891 88.85432617 84.70019531 89.29443359 C92.84997995 95.49309451 101.27448527 101.22536467 109.8125 106.875 C127.84433666 118.80689974 145.16785337 131.22169594 161 146 C161.87398437 146.80824219 162.74796875 147.61648437 163.6484375 148.44921875 C175.9193369 160.21029568 185.29168214 173.90721154 193 189 C193.32339355 189.63292969 193.64678711 190.26585937 193.97998047 190.91796875 C214.44066216 231.56694211 214.78457177 279.15441497 201 322 C198.68753971 328.49412887 195.91494502 334.75769714 193 341 C192.68836914 341.68610352 192.37673828 342.37220703 192.05566406 343.07910156 C188.30226723 351.3047998 183.9264139 358.95834744 178.9375 366.5 C178.21385254 367.59453491 178.21385254 367.59453491 177.47558594 368.71118164 C174.00962133 373.81489048 170.15366629 378.4422388 166 383 C166 379.39995869 167.01119041 377.71106729 168.625 374.5 C187.47451877 334.22855754 188.84511528 287.25938379 173.84375 245.64501953 C172.87843624 243.0999226 171.86114239 240.57843078 170.82714844 238.06054688 C169.90710267 235.76857926 169.04998501 233.45773715 168.1953125 231.140625 C162.21200528 215.16530153 154.23323139 201.87404046 143 189 C142.39414062 188.27296875 141.78828125 187.5459375 141.1640625 186.796875 C118.91193311 160.41652251 84.31716456 146.91853885 51 142 C50.29762207 141.88962402 49.59524414 141.77924805 48.87158203 141.66552734 C32.70562981 139.18895807 16.3089585 139.49421086 0 139 C0 93.13 0 47.26 0 0 Z " fill="#464646" transform="translate(593,37)"/>
<path d="M0 0 C0 78.21 0 156.42 0 237 C-25.41 237 -50.82 237 -77 237 C-77 164.4 -77 91.8 -77 17 C-57.21628114 10.01751099 -57.21628114 10.01751099 -50.4375 8.3125 C-49.65286377 8.11027832 -48.86822754 7.90805664 -48.05981445 7.69970703 C-41.67744824 6.09075045 -35.26303795 4.82571914 -28.78125 3.69140625 C-24.00273148 2.81764822 -19.29210173 1.7050939 -14.57421875 0.55078125 C-9.76939167 -0.18963473 -4.86154082 0 0 0 Z " fill="#081436" transform="translate(193,405)"/>
<path d="M0 0 C7.16500421 -0.0471041 14.32997312 -0.08225354 21.49510288 -0.10362434 C24.82501993 -0.1139002 28.15474727 -0.12890776 31.48461914 -0.15087891 C44.727045 -0.23594267 57.94009075 -0.23569961 71.15234375 0.7578125 C72.57154869 0.8496431 72.57154869 0.8496431 74.01942444 0.94332886 C80.27993565 1.49808576 80.27993565 1.49808576 83.39257812 3.66772461 C85.37051991 6.53760277 86.99116984 9.44716211 88.56640625 12.55859375 C88.88657211 13.18476089 89.20673798 13.81092804 89.53660583 14.45606995 C90.55254818 16.44625962 91.55789946 18.44156496 92.5625 20.4375 C93.57272406 22.42875369 94.58513596 24.41886965 95.59910583 26.40821838 C96.51863361 28.21473877 97.43244879 30.02416355 98.34594727 31.83374023 C99.40252109 33.85627986 100.52084029 35.84848837 101.71459961 37.79321289 C103 40 103 40 103 42 C106.12777431 39.35401581 107.67277996 36.01142542 109.43359375 32.3984375 C110.08873832 31.09091806 110.74435139 29.78363328 111.40039062 28.4765625 C112.4241268 26.42071704 113.44340634 24.36295192 114.4543457 22.30078125 C115.43526683 20.30617039 116.43308514 18.32077864 117.43359375 16.3359375 C117.73164413 15.71617035 118.02969452 15.0964032 118.33677673 14.45785522 C120.50189219 10.20077492 120.50189219 10.20077492 123.22290039 9.10400391 C124.1025647 9.05252197 124.1025647 9.05252197 125 9 C125 8.01 125 7.02 125 6 C134.86106798 5.64891098 144.23837969 6.71726196 153.9375 8.3125 C156.12121768 8.66011433 158.30548809 9.00409292 160.48982239 9.34780884 C161.93806504 9.5758567 163.38613669 9.80499331 164.83403015 10.0352478 C171.98311537 11.16887707 179.15019589 12.15003631 186.32592773 13.09887695 C190.56547006 13.66106143 194.78590248 14.26474551 199 15 C198.49478506 20.06207118 197.41149122 23.72196643 194.97265625 28.17578125 C194.35060303 29.32385254 193.7285498 30.47192383 193.08764648 31.65478516 C192.41285037 32.87416332 191.73779587 34.09339853 191.0625 35.3125 C190.37027697 36.58072763 189.67895939 37.84944986 188.98852539 39.11865234 C187.00670849 42.75380241 185.00575528 46.37800229 183 50 C182.51756836 50.87221191 182.03513672 51.74442383 181.53808594 52.64306641 C179.95590854 55.49892716 178.36990341 58.35255913 176.77514648 61.20141602 C172.53102966 68.79427737 168.42761915 76.46232156 164.31225586 84.12548828 C160.09267351 91.980043 155.83853959 99.81474224 151.55712891 107.63574219 C148.77535087 112.72406624 146.01692619 117.82424965 143.28125 122.9375 C142.96615479 123.52571533 142.65105957 124.11393066 142.32641602 124.7199707 C140.78690668 127.59395849 139.25024431 130.46938735 137.71875 133.34765625 C137.161875 134.38792969 136.605 135.42820312 136.03125 136.5 C135.29745117 137.87671875 135.29745117 137.87671875 134.54882812 139.28125 C133.7821582 140.62703125 133.7821582 140.62703125 133 142 C132.51112305 143.09135254 132.02224609 144.18270508 131.51855469 145.30712891 C128.61974756 148.4065708 128.01387497 148.43638609 123.95605469 148.68115234 C121.86108791 148.68020363 119.7659701 148.64637244 117.671875 148.5859375 C116.56773254 148.57744781 115.46359009 148.56895813 114.32598877 148.56021118 C110.7996663 148.52662627 107.27563116 148.45133107 103.75 148.375 C101.35940802 148.34490727 98.9687802 148.31753028 96.578125 148.29296875 C90.71796969 148.22681826 84.85914823 148.12641725 79 148 C72.81584704 136.6760909 66.64068154 125.34755664 60.5 114 C53.10490288 100.33933837 45.70037138 86.68404564 38.18359375 73.08984375 C37.85348801 72.49279129 37.52338226 71.89573883 37.18327332 71.28059387 C35.82189797 68.81852333 34.46050669 66.35646178 33.09860229 63.89468384 C27.6656825 54.07040017 22.32655988 44.19890483 17.0390625 34.29541016 C12.72691074 26.25379612 8.23271792 18.32835119 3.55371094 10.49414062 C3.08481445 9.69427734 2.61591797 8.89441406 2.1328125 8.0703125 C1.71918457 7.37695801 1.30555664 6.68360352 0.87939453 5.96923828 C0 4 0 4 0 0 Z " fill="#0B1739" transform="translate(231,399)"/>
<path d="M0 0 C-0.33 0.66 -0.66 1.32 -1 2 C-5.95 1.67 -10.9 1.34 -16 1 C-16 46.87 -16 92.74 -16 140 C-5.11 140 5.78 140 17 140 C30.86751789 141.44884515 30.86751789 141.44884515 37.61767578 142.59863281 C39.79253119 142.96504625 41.96789807 143.28320615 44.15234375 143.5859375 C78.86064478 149.01241299 111.80408803 167.9630794 133 196 C133.60690674 196.78648926 133.60690674 196.78648926 134.22607422 197.58886719 C139.37630834 204.293478 143.85137028 211.14450982 147.6875 218.6875 C148.21452515 219.71266724 148.21452515 219.71266724 148.75219727 220.75854492 C151.12579497 225.62261509 151.12579497 225.62261509 150 229 C149.26136719 227.91203125 148.52273438 226.8240625 147.76171875 225.703125 C141.41590403 216.46844163 134.86499869 207.99166777 127 200 C126.47736572 199.45110107 125.95473145 198.90220215 125.41625977 198.33666992 C121.12825842 193.90567409 116.56653708 190.15766528 111.5625 186.5625 C110.78189209 186.00046875 110.00128418 185.4384375 109.19702148 184.859375 C101.8349838 179.68102409 94.17370839 175.7185492 86 172 C84.57494141 171.29810547 84.57494141 171.29810547 83.12109375 170.58203125 C58.49289309 158.65332005 31.92566976 157 5 157 C5 295.6 5 434.2 5 577 C4.67 577 4.34 577 4 577 C3.67 483.28 3.34 389.56 3 293 C2.67 304.55 2.34 316.1 2 328 C2.33 328.33 2.66 328.66 3 329 C3.10474204 331.09005977 3.13856445 333.18369525 3.14526367 335.27636719 C3.14862228 335.93172455 3.1519809 336.58708191 3.15544128 337.26229858 C3.16498103 339.44050974 3.16689624 341.61864421 3.16796875 343.796875 C3.17118046 345.30804476 3.17454446 346.8192142 3.17805481 348.3303833 C3.1840545 351.50476807 3.18589397 354.67912558 3.18530273 357.85351562 C3.18520134 361.9167022 3.1988259 365.97971311 3.21607494 370.04285812 C3.22721038 373.16730548 3.22922143 376.29171068 3.22869301 379.41617584 C3.22987186 380.9136541 3.23428834 382.41113349 3.24202538 383.90859222 C3.25185163 386.00786994 3.24893648 388.10677056 3.24291992 390.20605469 C3.24434494 391.39994812 3.24576996 392.59384155 3.24723816 393.82391357 C3 397 3 397 1 402 C-4.61 402 -10.22 402 -16 402 C-16 315.87 -16 229.74 -16 141 C-22.6 141 -29.2 141 -36 141 C-36 265.41 -36 389.82 -36 518 C-36.99 518 -37.98 518 -39 518 C-38.67 517.34 -38.34 516.68 -38 516 C-37.8980548 513.22365801 -37.8578826 510.47213636 -37.8613348 507.69534111 C-37.85849258 506.8218326 -37.85565036 505.94832409 -37.85272202 505.04834563 C-37.84432694 502.08893296 -37.84310306 499.12955919 -37.84178162 496.1701355 C-37.83721954 494.04001144 -37.83222004 491.90988829 -37.82681805 489.7797662 C-37.81318719 483.90107478 -37.80580433 478.02238918 -37.79939139 472.14368606 C-37.79140909 465.81373011 -37.7777039 459.48378633 -37.76467896 453.15383911 C-37.7428853 442.17837751 -37.7247168 431.2029156 -37.70907402 420.2274437 C-37.69264807 408.71306775 -37.67417168 397.19869812 -37.65294075 385.68432999 C-37.65162314 384.96911253 -37.65030554 384.25389507 -37.648948 383.51700435 C-37.64224616 379.88495904 -37.63550754 376.2529138 -37.62875474 372.62086858 C-37.58095785 346.87729741 -37.53778257 321.13372036 -37.49731445 295.39013672 C-37.45798318 270.37646048 -37.41656518 245.36278913 -37.37231445 220.34912109 C-37.37095192 219.5784513 -37.36958939 218.8077815 -37.36818558 218.01375807 C-37.35450051 210.27456288 -37.34077295 202.53536777 -37.32701423 194.79617271 C-37.29898569 179.02973447 -37.27124089 163.26329573 -37.2436676 147.49685669 C-37.2417653 146.40942013 -37.2417653 146.40942013 -37.23982458 145.30001516 C-37.15513065 96.86668468 -37.07707252 48.43334314 -37 0 C-33.68767894 -0.17035053 -30.37512086 -0.33559092 -27.0625 -0.5 C-26.13630859 -0.54769531 -25.21011719 -0.59539063 -24.25585938 -0.64453125 C-16.06086335 -1.04709246 -8.11069325 -1.38054353 0 0 Z " fill="#D9B472" transform="translate(609,36)"/>
<path d="M0 0 C14 1 14 1 17 2 C18.73789909 2.25854651 20.48114383 2.48196728 22.2265625 2.68359375 C23.25910156 2.80669922 24.29164063 2.92980469 25.35546875 3.05664062 C27.5115839 3.30780099 29.66783156 3.55782672 31.82421875 3.80664062 C37.33446969 4.46554919 42.68374719 5.29699187 48.08300781 6.57836914 C50.57003255 7.12537522 53.02322833 7.34492997 55.5625 7.5 C58.86348314 7.75710022 61.92875311 8.13580601 65.125 9 C69.79844141 10.30346666 69.79844141 10.30346666 78 11 C78 42.68 78 74.36 78 107 C72 106 66 105 60 104 C43.83154743 103.15234104 27.6833558 103.26908257 11.99072266 107.54785156 C11.30929199 107.73057617 10.62786133 107.91330078 9.92578125 108.1015625 C9.31774658 108.27252441 8.70971191 108.44348633 8.08325195 108.61962891 C6 109 6 109 0 109 C0 73.03 0 37.06 0 0 Z " fill="#091638" transform="translate(477,422)"/>
<path d="M0 0 C6.6 0 13.2 0 20 0 C20 86.13 20 172.26 20 261 C13.4 260.34 6.8 259.68 0 259 C0 173.53 0 88.06 0 0 Z " fill="#414141" transform="translate(573,177)"/>
<path d="M0 0 C-0.33 0.66 -0.66 1.32 -1 2 C-5.95 1.67 -10.9 1.34 -16 1 C-16 46.87 -16 92.74 -16 140 C-22.93 140 -29.86 140 -37 140 C-37 93.8 -37 47.6 -37 0 C-8.08837209 -1.37674419 -8.08837209 -1.37674419 0 0 Z " fill="#F5DE9B" transform="translate(609,36)"/>
<path d="M0 0 C51.62554332 0 97.99167842 4.43017934 136.26171875 41.2265625 C140.54101744 45.56080225 144.3293379 50.14462685 148 55 C148.40460449 55.52432617 148.80920898 56.04865234 149.22607422 56.58886719 C154.37630834 63.293478 158.85137028 70.14450982 162.6875 77.6875 C163.21452515 78.71266724 163.21452515 78.71266724 163.75219727 79.75854492 C166.12579497 84.62261509 166.12579497 84.62261509 165 88 C164.26136719 86.91203125 163.52273438 85.8240625 162.76171875 84.703125 C156.41590403 75.46844163 149.86499869 66.99166777 142 59 C141.47736572 58.45110107 140.95473145 57.90220215 140.41625977 57.33666992 C136.12825842 52.90567409 131.56653708 49.15766528 126.5625 45.5625 C125.78189209 45.00046875 125.00128418 44.4384375 124.19702148 43.859375 C116.8349838 38.68102409 109.17370839 34.7185492 101 31 C99.57494141 30.29810547 99.57494141 30.29810547 98.12109375 29.58203125 C73.49289309 17.65332005 46.92566976 16 20 16 C20 38.77 20 61.54 20 85 C19.67 85 19.34 85 19 85 C18.67 70.15 18.34 55.3 18 40 C17.34 40 16.68 40 16 40 C15.94550772 37.16640156 15.90609267 34.33387515 15.875 31.5 C15.85824219 30.70851562 15.84148438 29.91703125 15.82421875 29.1015625 C15.7801037 23.71952695 16.37237339 19.14466593 18 14 C20 12 20 12 22.25 11.76953125 C27.63298034 11.85364032 32.92356246 12.11192132 38.2734375 12.71484375 C41.49132915 13.05138543 44.70968423 13.27848323 47.9375 13.5 C49.11570312 13.58378906 50.29390625 13.66757813 51.5078125 13.75390625 C53.77302381 13.91353523 56.03864236 14.06752403 58.3046875 14.21484375 C59.29726563 14.28832031 60.28984375 14.36179688 61.3125 14.4375 C62.19550781 14.49808594 63.07851563 14.55867187 63.98828125 14.62109375 C64.65214844 14.74613281 65.31601562 14.87117187 66 15 C66.495 15.99 66.495 15.99 67 17 C70.02934491 17.65772428 70.02934491 17.65772428 73 18 C73.33 17.34 73.66 16.68 74 16 C74.495 16.99 74.495 16.99 75 18 C77.52225797 18.70706407 80.00755059 19.31514372 82.5625 19.875 C88.55484774 21.27180222 93.63388717 22.90416568 99 26 C102.01222967 27.58142058 105.08621071 28.87613581 108.25 30.125 C109.14203125 30.47820312 110.0340625 30.83140625 110.953125 31.1953125 C111.62859375 31.46085937 112.3040625 31.72640625 113 32 C113 32.66 113 33.32 113 34 C113.66 34 114.32 34 115 34 C115 34.66 115 35.32 115 36 C115.7425 35.9175 116.485 35.835 117.25 35.75 C120.91128052 36.08284368 121.48169047 37.34178439 124 40 C126.35663062 41.60381806 128.75204547 43.12627347 131.171875 44.6328125 C131.77515625 45.08398438 132.3784375 45.53515625 133 46 C133 46.66 133 47.32 133 48 C133.598125 48.28875 134.19625 48.5775 134.8125 48.875 C137 50 137 50 140 52 C139.44688903 48.40088352 138.28709295 47.07407981 135.4375 44.875 C133.49609375 43.3671875 133.49609375 43.3671875 132 42 C132 41.34 132 40.68 132 40 C131.01 39.67 130.02 39.34 129 39 C129 38.34 129 37.68 129 37 C128.38125 36.896875 127.7625 36.79375 127.125 36.6875 C125 36 125 36 123 33 C121.01833966 31.9641321 119.01526169 30.96887581 117 30 C113.625 27.9375 113.625 27.9375 111 26 C111 25.34 111 24.68 111 24 C110.154375 23.731875 109.30875 23.46375 108.4375 23.1875 C104.86145933 21.9521405 101.46139092 20.523012 98 19 C98 18.34 98 17.68 98 17 C97.0925 16.7525 96.185 16.505 95.25 16.25 C91.89605687 15.29847891 88.60997857 14.19343549 85.3125 13.0625 C76.68150653 10.16749844 68.07432486 7.87253124 59 7 C59 6.34 59 5.68 59 5 C57.38931641 4.90912109 57.38931641 4.90912109 55.74609375 4.81640625 C54.30988685 4.73192349 52.87368942 4.64727946 51.4375 4.5625 C50.73302734 4.52318359 50.02855469 4.48386719 49.30273438 4.44335938 C48.60341797 4.40146484 47.90410156 4.35957031 47.18359375 4.31640625 C46.23311157 4.26141968 46.23311157 4.26141968 45.26342773 4.20532227 C43.45615163 4.04137887 41.65753385 3.78293258 39.86610413 3.49327087 C35.84567174 2.98030947 31.92192983 2.87285279 27.87890625 2.90234375 C27.13414536 2.9037587 26.38938446 2.90517365 25.62205505 2.90663147 C23.26882727 2.91218011 20.9156985 2.92472267 18.5625 2.9375 C16.95638159 2.94252165 15.35026168 2.94708339 13.74414062 2.95117188 C9.82938957 2.96213265 5.91471151 2.97936116 2 3 C2.00222061 4.09136765 2.00444122 5.18273529 2.00672913 6.30717468 C2.02700069 16.59220093 2.04199153 26.87722313 2.05181217 37.16226482 C2.05703078 42.44990051 2.06410992 47.73752008 2.07543945 53.02514648 C2.08630459 58.127965 2.09228455 63.230768 2.09487724 68.33359718 C2.09672494 70.28043677 2.10033299 72.22727552 2.10573006 74.17410851 C2.11298856 76.90084036 2.1139889 79.62750809 2.11352539 82.35424805 C2.11712067 83.15913666 2.12071594 83.96402527 2.12442017 84.79330444 C2.11731767 88.65448843 1.94392121 92.24725352 1 96 C0.67 96 0.34 96 0 96 C0 64.32 0 32.64 0 0 Z " fill="#EBCF8F" transform="translate(594,177)"/>
<path d="M0 0 C-2.96687001 1.64826111 -5.65626525 2.44271087 -9 3 C-9.09999363 7.6997004 -8.801363 12.13635676 -8.12109375 16.7890625 C-7.98046716 19.35663181 -8.49105847 21.48129665 -9 24 C-9.28655684 30.9785018 -9.26899027 37.93829308 -8.12109375 44.83984375 C-8 47 -8 47 -8.48831177 50.05673218 C-9.06510523 54.50172611 -9.11034819 58.77864132 -9.06591797 63.25244141 C-9.06124512 64.15251419 -9.05657227 65.05258698 -9.05175781 65.97993469 C-9.04130029 67.92347064 -9.02865283 69.86699581 -9.01403427 71.81050491 C-8.99193082 74.88729283 -8.97790513 77.96401846 -8.96633911 81.04086304 C-8.93281292 89.78514077 -8.89098519 98.52931451 -8.82861328 107.2734375 C-8.79097493 112.63070795 -8.76794796 117.98787389 -8.75430679 123.34525681 C-8.7462545 125.38422953 -8.73264842 127.42318819 -8.71337509 129.46208572 C-8.6869076 132.31030482 -8.67900429 135.15802089 -8.67529297 138.00634766 C-8.6629361 138.84699265 -8.65057922 139.68763763 -8.6378479 140.55375671 C-8.65391237 145.22691702 -9.05571495 148.14401705 -12 152 C-13.42892578 151.69255859 -13.42892578 151.69255859 -14.88671875 151.37890625 C-16.14097656 151.10949219 -17.39523437 150.84007812 -18.6875 150.5625 C-19.92886719 150.29566406 -21.17023438 150.02882813 -22.44921875 149.75390625 C-23.62097656 149.50511719 -24.79273438 149.25632812 -26 149 C-26.82371094 148.8246875 -27.64742187 148.649375 -28.49609375 148.46875 C-31.77718755 147.85450467 -35.06781672 147.39030907 -38.375 146.9375 C-39.64085937 146.76089844 -40.90671875 146.58429688 -42.2109375 146.40234375 C-48.62054769 145.72173566 -54.64650688 146.08943496 -61 147 C-62.07894531 147.14566406 -63.15789062 147.29132813 -64.26953125 147.44140625 C-67.85086491 147.93417914 -71.4259524 148.45700411 -75 149 C-75.86882812 149.13148438 -76.73765625 149.26296875 -77.6328125 149.3984375 C-91.06073383 151.74721582 -103.05635102 157.72074363 -115 164 C-116.04800781 164.54011719 -117.09601563 165.08023438 -118.17578125 165.63671875 C-123.87989801 168.6426226 -128.98467405 171.95751505 -134 176 C-134.81855469 176.63421875 -135.63710938 177.2684375 -136.48046875 177.921875 C-144.23887328 184.05694814 -151.11383732 190.91677703 -158 198 C-158.99 197.34 -159.98 196.68 -161 196 C-146.66677563 180.91568964 -131.59270671 168.46315676 -113 159 C-112.37915527 158.67805664 -111.75831055 158.35611328 -111.11865234 158.02441406 C-101.46562815 153.06464302 -91.55697284 149.51482757 -81 147 C-79.90816406 146.73815918 -78.81632813 146.47631836 -77.69140625 146.20654297 C-69.10100294 144.30570215 -60.83503836 143.52573077 -52.02050781 143.60888672 C-49.99996519 143.62500028 -47.98142126 143.60890492 -45.9609375 143.58984375 C-33.84010881 143.56892806 -23.19164893 145.20357903 -12 150 C-12 100.5 -12 51 -12 0 C-4.125 -1.125 -4.125 -1.125 0 0 Z " fill="#91693D" transform="translate(605,438)"/>
<path d="M0 0 C0.99 0.495 0.99 0.495 2 1 C-0.94050565 22.19614492 -21.74731199 43.06289198 -37.77783203 55.36425781 C-69.39573335 78.77216711 -107.42508873 90.49421569 -146.84765625 85.50390625 C-161.85062989 82.71155469 -176.67355533 76.38257428 -188 66 C-187.01 65.01 -187.01 65.01 -186 64 C-186 64.66 -186 65.32 -186 66 C-185.44699219 66.11472656 -184.89398438 66.22945312 -184.32421875 66.34765625 C-181.63610013 67.1021366 -179.31127113 68.19365085 -176.8125 69.4375 C-175.49185547 70.08525391 -175.49185547 70.08525391 -174.14453125 70.74609375 C-172 72 -172 72 -171 74 C-165.09446625 76.95276687 -157.66346083 80 -151 80 C-151 80.66 -151 81.32 -151 82 C-150.28199219 81.81566406 -149.56398438 81.63132812 -148.82421875 81.44140625 C-145.77426883 80.96471975 -143.81148706 81.27538597 -140.8125 81.9375 C-135.28824121 82.95821199 -129.97310384 83.19697603 -124.375 83.1875 C-123.5806958 83.18806396 -122.7863916 83.18862793 -121.96801758 83.18920898 C-117.85130601 83.2416569 -117.85130601 83.2416569 -114 82 C-112.02243221 81.86893881 -110.04269191 81.76990989 -108.0625 81.6875 C-102.4245766 81.2963225 -97.85505668 80.14424648 -92.6328125 78.05078125 C-86.62240523 75.65196885 -80.42270341 73.84509255 -74 73 C-74 72.34 -74 71.68 -74 71 C-73.21625 70.773125 -72.4325 70.54625 -71.625 70.3125 C-67.69809723 68.89069038 -64.14580006 67.08078139 -60.46484375 65.12109375 C-57.96503943 63.98409876 -55.70375479 63.42893793 -53 63 C-53 62.34 -53 61.68 -53 61 C-50.4385343 58.70351351 -49.52032428 58 -46 58 C-46 57.34 -46 56.68 -46 56 C-44.171875 54.6328125 -44.171875 54.6328125 -41.75 53.125 C-39.05118211 51.40181111 -36.93162662 49.92977869 -34.6875 47.625 C-33 46 -33 46 -29 46 C-28.814375 45.1028125 -28.814375 45.1028125 -28.625 44.1875 C-28 42 -28 42 -26 39 C-25.34 39 -24.68 39 -24 39 C-22.62464661 37.02866014 -21.29788956 35.02318078 -20 33 C-17.875 30.125 -17.875 30.125 -16 28 C-15.34 28 -14.68 28 -14 28 C-14 27.01 -14 26.02 -14 25 C-13.01 25 -12.02 25 -11 25 C-11 23.68 -11 22.36 -11 21 C-10.34 21 -9.68 21 -9 21 C-8.67 19.35 -8.34 17.7 -8 16 C-7.34 16 -6.68 16 -6 16 C-6 15.34 -6 14.68 -6 14 C-5.34 14 -4.68 14 -4 14 C-4 12.35 -4 10.7 -4 9 C-3.34 9 -2.68 9 -2 9 C-2.04125 8.071875 -2.0825 7.14375 -2.125 6.1875 C-2 3 -2 3 0 0 Z " fill="#E9D091" transform="translate(605,643)"/>
<path d="M0 0 C6.6 0 13.2 0 20 0 C20 86.13 20 172.26 20 261 C19.34 260.67 18.68 260.34 18 260 C18 174.86 18 89.72 18 2 C9.585 2.495 9.585 2.495 1 3 C0.67 2.01 0.34 1.02 0 0 Z " fill="#504430" transform="translate(573,177)"/>
<path d="M0 0 C5.38298034 0.08410907 10.67356246 0.34239007 16.0234375 0.9453125 C19.24132915 1.28185418 22.45968423 1.50895198 25.6875 1.73046875 C26.86570312 1.81425781 28.04390625 1.89804688 29.2578125 1.984375 C31.52302381 2.14400398 33.78864236 2.29799278 36.0546875 2.4453125 C37.04726563 2.51878906 38.03984375 2.59226563 39.0625 2.66796875 C39.94550781 2.72855469 40.82851563 2.78914062 41.73828125 2.8515625 C42.40214844 2.97660156 43.06601562 3.10164062 43.75 3.23046875 C44.245 4.22046875 44.245 4.22046875 44.75 5.23046875 C47.77934491 5.88819303 47.77934491 5.88819303 50.75 6.23046875 C51.08 5.57046875 51.41 4.91046875 51.75 4.23046875 C52.245 5.22046875 52.245 5.22046875 52.75 6.23046875 C55.27225797 6.93753282 57.75755059 7.54561247 60.3125 8.10546875 C66.30484774 9.50227097 71.38388717 11.13463443 76.75 14.23046875 C79.76222967 15.81188933 82.83621071 17.10660456 86 18.35546875 C86.89203125 18.70867187 87.7840625 19.061875 88.703125 19.42578125 C89.37859375 19.69132812 90.0540625 19.956875 90.75 20.23046875 C90.75 20.89046875 90.75 21.55046875 90.75 22.23046875 C91.41 22.23046875 92.07 22.23046875 92.75 22.23046875 C92.75 22.89046875 92.75 23.55046875 92.75 24.23046875 C93.4925 24.14796875 94.235 24.06546875 95 23.98046875 C98.66128052 24.31331243 99.23169047 25.57225314 101.75 28.23046875 C104.10663062 29.83428681 106.50204547 31.35674222 108.921875 32.86328125 C109.52515625 33.31445312 110.1284375 33.765625 110.75 34.23046875 C110.75 34.89046875 110.75 35.55046875 110.75 36.23046875 C111.348125 36.51921875 111.94625 36.80796875 112.5625 37.10546875 C114.75 38.23046875 114.75 38.23046875 117.75 40.23046875 C118.74 39.24046875 118.74 39.24046875 119.75 38.23046875 C121.75 40.23046875 121.75 40.23046875 121.75 43.23046875 C122.74 43.56046875 123.73 43.89046875 124.75 44.23046875 C124.75 46.54046875 124.75 48.85046875 124.75 51.23046875 C118.40330189 45.84957252 118.40330189 45.84957252 115.5859375 43.1796875 C104.65629531 32.88974009 92.18992411 25.41451488 78.63183594 19.11230469 C76.91108328 18.30595303 75.20832361 17.46148799 73.5078125 16.61328125 C49.78578265 5.41926716 23.4941505 4.23046875 -2.25 4.23046875 C-2.25 27.00046875 -2.25 49.77046875 -2.25 73.23046875 C-2.58 73.23046875 -2.91 73.23046875 -3.25 73.23046875 C-3.58 58.38046875 -3.91 43.53046875 -4.25 28.23046875 C-4.91 28.23046875 -5.57 28.23046875 -6.25 28.23046875 C-6.30449228 25.39687031 -6.34390733 22.5643439 -6.375 19.73046875 C-6.39175781 18.93898437 -6.40851562 18.1475 -6.42578125 17.33203125 C-6.4698963 11.9499957 -5.87762661 7.37513468 -4.25 2.23046875 C-2.25 0.23046875 -2.25 0.23046875 0 0 Z " fill="#F0DAA5" transform="translate(616.25,188.76953125)"/>
<path d="M0 0 C0.33 0 0.66 0 1 0 C1.02288154 39.89961217 1.04050596 79.79922348 1.05106533 119.69884089 C1.05231606 124.40778847 1.05361038 129.11673604 1.05493164 133.82568359 C1.05519395 134.76316277 1.05545626 135.70064195 1.05572652 136.66652958 C1.06007956 151.85234884 1.06796512 167.03816432 1.0771528 182.22398134 C1.08649948 197.80236102 1.09205777 213.38073873 1.09408849 228.95912111 C1.09546161 238.57424194 1.0998008 248.18935209 1.10791647 257.80446963 C1.11319642 264.395083 1.11480144 270.98569084 1.11350138 277.57630618 C1.11285996 281.38050738 1.11385341 285.18468989 1.11920547 288.98888779 C1.12496373 293.111877 1.12299096 297.23482629 1.12025452 301.3578186 C1.12316736 302.56209932 1.1260802 303.76638004 1.12908131 305.00715411 C1.12709026 306.11288661 1.12509921 307.21861911 1.12304783 308.35785866 C1.12342755 309.30943781 1.12380727 310.26101695 1.1241985 311.24143183 C0.98987048 314.22498649 0.54560391 317.06604625 0 320 C-0.33 320 -0.66 320 -1 320 C-0.67 256.97 -0.34 193.94 0 129 C-2.31 129 -4.62 129 -7 129 C-7 128.67 -7 128.34 -7 128 C-4.525 127.505 -4.525 127.505 -2 127 C-0.96331729 123.59574255 -0.88504573 120.49876266 -0.90234375 116.94970703 C-0.90564697 115.72808868 -0.9089502 114.50647034 -0.91235352 113.24783325 C-0.92065186 111.9311264 -0.9289502 110.61441956 -0.9375 109.2578125 C-0.94190845 107.88784965 -0.94572432 106.51788478 -0.94897461 105.1479187 C-0.96231935 100.07180416 -0.9864932 94.99575165 -1.01037598 89.91967773 C-1.03015679 85.62938658 -1.04577837 81.33911884 -1.05593872 77.04879379 C-1.06238839 75.04253166 -1.07496352 73.03629222 -1.08764648 71.03005981 C-1.09260132 69.18817581 -1.09260132 69.18817581 -1.09765625 67.30908203 C-1.10289307 66.23304718 -1.10812988 65.15701233 -1.11352539 64.04837036 C-0.99829484 60.95421313 -0.57609073 58.03932001 0 55 C-0.66 54.67 -1.32 54.34 -2 54 C-1.0125055 16.13545992 -1.0125055 16.13545992 0 0 Z " fill="#B8986C" transform="translate(612,310)"/>
<path d="M0 0 C1.98 0 3.96 0 6 0 C4.68 0.33 3.36 0.66 2 1 C2.03552979 2.20640137 2.07105957 3.41280273 2.10766602 4.65576172 C3.00215154 36.24694051 2.99618992 67.77759121 2.5625 99.375 C2.54968616 100.30931602 2.53687233 101.24363205 2.5236702 102.20626068 C2.36329958 113.80440074 2.18850907 125.40228369 2 137 C2.87394913 136.99476318 3.74789825 136.98952637 4.64833069 136.98413086 C7.95269964 136.96688586 11.25701941 136.95445259 14.56141663 136.94506836 C15.97998316 136.94010074 17.39854474 136.93332435 18.8170929 136.92456055 C30.64340998 136.85343267 42.26088028 137.53424592 54 139 C54 139.33 54 139.66 54 140 C35.96606188 140.18464783 18.05067924 139.54699028 0 139 C0 93.13 0 47.26 0 0 Z " fill="#4A4330" transform="translate(593,37)"/>
<path d="M0 0 C0.33 0 0.66 0 1 0 C1.00423194 0.88883031 1.00846388 1.77766062 1.01282406 2.69342518 C1.11603683 24.30023392 1.22466044 45.90700952 1.33933926 67.51376057 C1.39466549 77.9625314 1.44814652 88.41130565 1.49731445 98.86010742 C1.54016361 107.96510398 1.58644348 117.07007546 1.63687855 126.17503327 C1.66347356 130.99798589 1.68832653 135.82093356 1.70907402 140.64391518 C1.72864312 145.18038263 1.75278777 149.71680238 1.78049088 154.25322723 C1.78985985 155.92095512 1.79753569 157.58869348 1.80341911 159.2564373 C1.81168288 161.52817322 1.82596033 163.79979343 1.84178162 166.07148743 C1.84823417 167.34448354 1.85468672 168.61747965 1.8613348 169.9290514 C1.86175584 173.04045545 1.86175584 173.04045545 3 176 C3.09122131 178.69271286 3.12602134 181.35900425 3.11352539 184.05151367 C3.11367142 184.87125168 3.11381744 185.69098969 3.1139679 186.53556824 C3.11327096 189.24639528 3.10548878 191.9571537 3.09765625 194.66796875 C3.09579129 196.54698143 3.09436776 198.4259946 3.09336853 200.30500793 C3.08954948 205.25175315 3.07972438 210.19846902 3.06866455 215.14520264 C3.0584373 220.19250085 3.05386809 225.23980379 3.04882812 230.28710938 C3.03810159 240.19141914 3.02103248 250.09570713 3 260 C2.01 260.33 1.02 260.66 0 261 C0 174.87 0 88.74 0 0 Z " fill="#B99D6F" transform="translate(593,177)"/>
<path d="M0 0 C1.48842911 -0.00639748 1.48842911 -0.00639748 3.00692749 -0.01292419 C4.10499725 -0.01247101 5.20306702 -0.01201782 6.33441162 -0.0115509 C8.05895065 -0.01658882 8.05895065 -0.01658882 9.81832886 -0.02172852 C13.64629173 -0.03128051 17.47421098 -0.03318442 21.30218506 -0.03425598 C23.28841975 -0.03665635 25.27465445 -0.03905835 27.26088881 -0.0417164 C33.52140225 -0.04987469 39.7819013 -0.05229979 46.04241943 -0.05158997 C52.47523863 -0.05099221 58.90797314 -0.06148011 65.34077096 -0.07733363 C70.87555972 -0.09048223 76.41032111 -0.09577065 81.94512534 -0.09513456 C85.24482587 -0.09488124 88.54443539 -0.09857713 91.84412384 -0.10831261 C95.5414767 -0.11819101 99.2386173 -0.11520249 102.93597412 -0.10920715 C104.00975311 -0.11482666 105.0835321 -0.12044617 106.18984985 -0.12623596 C116.24230925 -0.08514451 127.07181337 -0.03044783 135.41156006 6.13371277 C138.41156006 9.42403535 138.41156006 9.42403535 138.41156006 12.13371277 C137.42156006 12.13371277 136.43156006 12.13371277 135.41156006 12.13371277 C135.41156006 11.47371277 135.41156006 10.81371277 135.41156006 10.13371277 C134.75156006 10.13371277 134.09156006 10.13371277 133.41156006 10.13371277 C132.82374756 9.49820496 132.23593506 8.86269714 131.63031006 8.20793152 C120.97266026 -1.75546997 87.45421949 2.93330912 73.67718506 2.81730652 C71.5758429 2.79666455 69.4745042 2.77566663 67.37316895 2.7543335 C61.91543438 2.6998587 56.45766717 2.65012942 50.99987793 2.60148621 C45.40139964 2.55071657 39.80296715 2.49532388 34.20452881 2.44035339 C23.27357859 2.33368823 12.34258815 2.23205071 1.41156006 2.13371277 C1.74156006 3.45371277 2.07156006 4.77371277 2.41156006 6.13371277 C-3.33843994 4.50871277 -3.33843994 4.50871277 -5.58843994 1.13371277 C-3.97517718 -0.47955 -2.23170347 0.00431314 0 0 Z " fill="#98B5D0" transform="translate(73.58843994140625,202.8662872314453)"/>
<path d="M0 0 C0.99 0.495 0.99 0.495 2 1 C-0.94050565 22.19614492 -21.74731199 43.06289198 -37.77783203 55.36425781 C-51.01217328 65.16213328 -65.12475651 75.09020426 -82 76 C-78.93882432 73.37613513 -78.26826873 73 -74 73 C-74 72.34 -74 71.68 -74 71 C-73.21625 70.773125 -72.4325 70.54625 -71.625 70.3125 C-67.69809723 68.89069038 -64.14580006 67.08078139 -60.46484375 65.12109375 C-57.96503943 63.98409876 -55.70375479 63.42893793 -53 63 C-53 62.34 -53 61.68 -53 61 C-50.4385343 58.70351351 -49.52032428 58 -46 58 C-46 57.34 -46 56.68 -46 56 C-44.171875 54.6328125 -44.171875 54.6328125 -41.75 53.125 C-39.05118211 51.40181111 -36.93162662 49.92977869 -34.6875 47.625 C-33 46 -33 46 -29 46 C-28.814375 45.1028125 -28.814375 45.1028125 -28.625 44.1875 C-28 42 -28 42 -26 39 C-25.34 39 -24.68 39 -24 39 C-22.62464661 37.02866014 -21.29788956 35.02318078 -20 33 C-17.875 30.125 -17.875 30.125 -16 28 C-15.34 28 -14.68 28 -14 28 C-14 27.01 -14 26.02 -14 25 C-13.01 25 -12.02 25 -11 25 C-11 23.68 -11 22.36 -11 21 C-10.34 21 -9.68 21 -9 21 C-8.67 19.35 -8.34 17.7 -8 16 C-7.34 16 -6.68 16 -6 16 C-6 15.34 -6 14.68 -6 14 C-5.34 14 -4.68 14 -4 14 C-4 12.35 -4 10.7 -4 9 C-3.34 9 -2.68 9 -2 9 C-2.04125 8.071875 -2.0825 7.14375 -2.125 6.1875 C-2 3 -2 3 0 0 Z " fill="#DBBB7E" transform="translate(605,643)"/>
<path d="M0 0 C2.31 0 4.62 0 7 0 C7.04675946 23.81790376 7.0820082 47.63580063 7.10362434 71.45374107 C7.1139287 82.51328442 7.12797298 93.5727992 7.15087891 104.63232422 C7.1708385 114.27390011 7.18372255 123.91545532 7.18817699 133.5570513 C7.19078001 138.6602768 7.19688077 143.76344313 7.21146011 148.86664963 C7.22508461 153.67480754 7.22921282 158.4828822 7.22621536 163.29105759 C7.22676335 165.05099948 7.23071169 166.81094431 7.23841095 168.57086945 C7.27458697 177.27044723 7.1616845 185.50643961 5 194 C4.67 194 4.34 194 4 194 C3.8871622 187.96944637 4.03560503 182.01686261 4.49780273 176.00170898 C5.03215797 168.50769482 5.12878223 161.04862087 5.09765625 153.53515625 C5.09572966 152.16141312 5.09426938 150.78766926 5.0932312 149.41392517 C5.09010429 146.48728074 5.08388796 143.56066624 5.07516479 140.6340332 C5.06144553 135.98063396 5.05570663 131.32724402 5.05102539 126.67382812 C5.03906427 115.94754388 5.01707692 105.22128493 4.99479675 94.49501801 C4.97447749 84.67191223 4.95643212 74.84881551 4.94658184 65.02569294 C4.94247269 61.16922399 4.93628426 57.31278404 4.92483521 53.45632935 C4.87429158 36.27958298 5.04028679 19.15582043 6 2 C3.03 1.505 3.03 1.505 0 1 C0 0.67 0 0.34 0 0 Z " fill="#A17438" transform="translate(605,439)"/>
<path d="M0 0 C-2.96687001 1.64826111 -5.65626525 2.44271087 -9 3 C-9.09999363 7.6997004 -8.801363 12.13635676 -8.12109375 16.7890625 C-7.98046716 19.35663181 -8.49105847 21.48129665 -9 24 C-9.28655684 30.9785018 -9.26899027 37.93829308 -8.12109375 44.83984375 C-8 47 -8 47 -8.48731995 50.05474854 C-9.06613886 54.50896158 -9.11775922 58.8006515 -9.08178711 63.28417969 C-9.07872055 64.18746506 -9.07565399 65.09075043 -9.07249451 66.02140808 C-9.0653714 67.97149303 -9.05599838 69.9215708 -9.04459953 71.87163544 C-9.02714912 74.95627825 -9.0168921 78.04086888 -9.00868225 81.12554932 C-8.98427256 89.89185512 -8.94851224 98.65808995 -8.90405273 107.42431641 C-8.87731682 112.79454335 -8.86024604 118.16473031 -8.84918404 123.53501129 C-8.84296746 125.58120459 -8.83295373 127.62738995 -8.81910515 129.67354584 C-8.79995281 132.52688232 -8.79300238 135.38000649 -8.78881836 138.23339844 C-8.78005676 139.08123398 -8.77129517 139.92906952 -8.76226807 140.80259705 C-8.76885391 144.72392114 -8.77444594 146.66166891 -11 150 C-11 100.5 -11 51 -11 0 C-4.25 -1.125 -4.25 -1.125 0 0 Z " fill="#A87940" transform="translate(605,438)"/>
<path d="M0 0 C-0.33 0.66 -0.66 1.32 -1 2 C-2.26457031 1.98839844 -3.52914062 1.97679687 -4.83203125 1.96484375 C-6.49218602 1.95546434 -8.15234239 1.9463643 -9.8125 1.9375 C-11.06256836 1.92493164 -11.06256836 1.92493164 -12.33789062 1.91210938 C-13.14033203 1.90888672 -13.94277344 1.90566406 -14.76953125 1.90234375 C-15.50792236 1.89710693 -16.24631348 1.89187012 -17.00708008 1.88647461 C-19.21057409 1.92476787 -19.21057409 1.92476787 -22 3 C-22 2.34 -22 1.68 -22 1 C-23.81332154 1.30769707 -25.62564345 1.62129064 -27.4375 1.9375 C-28.44683594 2.11152344 -29.45617187 2.28554688 -30.49609375 2.46484375 C-32.9287438 2.74751097 -32.9287438 2.74751097 -34 4 C-34.07554519 5.77455655 -34.08307857 7.55208036 -34.0625 9.328125 C-34.05476562 10.43929687 -34.04703125 11.55046875 -34.0390625 12.6953125 C-34.01353588 15.01823488 -33.98751542 17.34115191 -33.9609375 19.6640625 C-33.95320312 20.79070313 -33.94546875 21.91734375 -33.9375 23.078125 C-33.92589844 24.09293945 -33.91429687 25.10775391 -33.90234375 26.15332031 C-33.98257845 29.31376516 -34.20201769 32.38183545 -34.48413086 35.52709961 C-35.28384373 45.49776334 -35.2355333 55.49103746 -35.31640625 65.48828125 C-35.33701685 67.6444688 -35.35801428 69.80065268 -35.37937927 71.95683289 C-35.43417644 77.5905762 -35.48376979 83.22435336 -35.53222656 88.8581543 C-35.58275388 94.62356525 -35.63827576 100.38892797 -35.69335938 106.15429688 C-35.80042166 117.43615655 -35.90197861 128.7180584 -36 140 C-36.33 140 -36.66 140 -37 140 C-37 93.8 -37 47.6 -37 0 C-8.08837209 -1.37674419 -8.08837209 -1.37674419 0 0 Z " fill="#EEE2BF" transform="translate(609,36)"/>
<path d="M0 0 C18.02297637 7.89024311 33.22671362 21.42686987 45 37 C45.60690674 37.78648926 45.60690674 37.78648926 46.22607422 38.58886719 C51.37630834 45.293478 55.85137028 52.14450982 59.6875 59.6875 C60.0388501 60.37094482 60.3902002 61.05438965 60.75219727 61.75854492 C63.12579497 66.62261509 63.12579497 66.62261509 62 70 C61.66790527 69.52167725 61.33581055 69.04335449 60.99365234 68.55053711 C59.45799083 66.34345647 57.9165388 64.14047921 56.375 61.9375 C55.59189453 60.80924805 55.59189453 60.80924805 54.79296875 59.65820312 C51.80689431 55.40028217 48.73969596 51.42388573 45.16162109 47.64428711 C43.08069391 44.69871237 43.2431484 41.52565183 43 38 C42.01 37.505 42.01 37.505 41 37 C40.4121875 35.948125 40.4121875 35.948125 39.8125 34.875 C37.15590602 30.66109231 33.52263454 26.26131727 29 24 C29 23.34 29 22.68 29 22 C28.01 21.67 27.02 21.34 26 21 C26 20.34 26 19.68 26 19 C25.38125 18.896875 24.7625 18.79375 24.125 18.6875 C22 18 22 18 20 15 C18.01833966 13.9641321 16.01526169 12.96887581 14 12 C10.625 9.9375 10.625 9.9375 8 8 C8 7.34 8 6.68 8 6 C7.05125 5.690625 6.1025 5.38125 5.125 5.0625 C2 4 2 4 0 3 C0 2.01 0 1.02 0 0 Z " fill="#E3C687" transform="translate(697,195)"/>
<path d="M0 0 C0.33 0 0.66 0 1 0 C1.16964368 4.90697239 1.32995035 9.81413606 1.48217773 14.72167969 C1.53504593 16.3858225 1.59032022 18.04989091 1.64819336 19.71386719 C1.73167293 22.12678968 1.80604965 24.53986096 1.87890625 26.953125 C1.90594131 27.67864563 1.93297638 28.40416626 1.96083069 29.15167236 C2.0769718 33.31179992 1.9060123 37.33751858 1.5 41.48046875 C0.77948476 49.44160634 0.98186014 57.37848514 1.12109375 65.359375 C1.1454549 67.00131492 1.16929521 68.64326264 1.19264221 70.28521729 C1.25488787 74.56609114 1.32411657 78.84682338 1.39489746 83.12756348 C1.46612539 87.51206115 1.53061417 91.89665766 1.59570312 96.28125 C1.72394589 104.85427627 1.85958039 113.42716456 2 122 C1.01 122 0.02 122 -1 122 C-1.0233476 109.34157899 -1.04102785 96.68316325 -1.05181217 84.02472496 C-1.05699257 78.14456792 -1.06400028 72.2644258 -1.07543945 66.38427734 C-1.08644292 60.69135012 -1.09231312 54.99843708 -1.09487724 49.30550003 C-1.09670048 47.1522156 -1.10025922 44.99893179 -1.10573006 42.84565353 C-1.14058932 28.53353343 -0.77552436 14.29160975 0 0 Z " fill="#4C6178" transform="translate(117,300)"/>
<path d="M0 0 C3.73084029 0.66038596 7.18397971 1.66047922 10.75 2.9375 C11.71421875 3.27652344 12.6784375 3.61554688 13.671875 3.96484375 C16 5 16 5 17 7 C19.11327425 7.90725434 19.11327425 7.90725434 21.5625 8.625 C22.38878906 8.88539063 23.21507812 9.14578125 24.06640625 9.4140625 C24.70449219 9.60742188 25.34257813 9.80078125 26 10 C26 10.66 26 11.32 26 12 C26.66 12 27.32 12 28 12 C28 12.66 28 13.32 28 14 C29.11375 13.87625 29.11375 13.87625 30.25 13.75 C33.91128052 14.08284368 34.48169047 15.34178439 37 18 C39.35663062 19.60381806 41.75204547 21.12627347 44.171875 22.6328125 C44.77515625 23.08398438 45.3784375 23.53515625 46 24 C46 24.66 46 25.32 46 26 C46.598125 26.28875 47.19625 26.5775 47.8125 26.875 C50 28 50 28 53 30 C53.66 29.34 54.32 28.68 55 28 C57 30 57 30 57 33 C57.99 33.33 58.98 33.66 60 34 C60 36.31 60 38.62 60 41 C53.65330189 35.61910377 53.65330189 35.61910377 50.8359375 32.94921875 C40.38662931 23.11149214 28.69134108 16.0960451 15.83203125 9.890625 C10.38739403 7.24730378 5.06808202 4.31153087 0 1 C0 0.67 0 0.34 0 0 Z " fill="#EBD197" transform="translate(681,199)"/>
<path d="M0 0 C0.33 0 0.66 0 1 0 C1.20213215 9.49972775 1.38909654 18.99970838 1.5625 28.5 C1.57523327 29.19711971 1.58796654 29.89423943 1.60108566 30.61248398 C1.97688212 51.43344642 2.13728511 72.19619285 1 93 C0.67 93 0.34 93 0 93 C-0.02505615 92.06728271 -0.0501123 91.13456543 -0.07592773 90.17358398 C-0.17152068 86.68650084 -0.27072459 83.19955812 -0.37231445 79.71264648 C-0.41541126 78.20845501 -0.45710207 76.70422252 -0.49731445 75.19995117 C-0.55563457 73.02770674 -0.61914484 70.85566398 -0.68359375 68.68359375 C-0.72025146 67.37962646 -0.75690918 66.07565918 -0.79467773 64.73217773 C-0.93534658 61.06090208 -0.93534658 61.06090208 -1.50927734 57.70556641 C-2.15886568 52.80036655 -2.16244071 47.97004012 -2.16796875 43.02734375 C-2.17129715 41.98606827 -2.17462555 40.94479279 -2.17805481 39.8719635 C-2.1830992 37.67921386 -2.18546391 35.48645661 -2.18530273 33.29370117 C-2.18749508 29.94502156 -2.20569338 26.59666856 -2.22460938 23.24804688 C-2.22754267 21.11198029 -2.22952789 18.97591214 -2.23046875 16.83984375 C-2.23765427 15.84282944 -2.24483978 14.84581512 -2.25224304 13.81858826 C-2.23580774 8.80808029 -1.99185041 4.6937015 0 0 Z " fill="#DFC48C" transform="translate(612,217)"/>
<path d="M0 0 C1.65 0 3.3 0 5 0 C5.33 0.99 5.66 1.98 6 3 C7.99054876 3.69437747 9.99255385 4.35610218 12 5 C16.34045967 7.51746661 18.90024436 10.12530545 22 14 C23.98689731 15.35278115 25.98745218 16.68568305 28 18 C29.70680947 19.62553283 31.37660195 21.29115995 33 23 C33.763125 23.70125 34.52625 24.4025 35.3125 25.125 C37 27 37 27 37 30 C37.66 30 38.32 30 39 30 C39 30.66 39 31.32 39 32 C39.86625 32.2784375 39.86625 32.2784375 40.75 32.5625 C44.21525414 34.77641237 45.26458248 37.27206606 47 41 C46.60546875 43.2265625 46.60546875 43.2265625 46 45 C45.07380859 43.65808594 45.07380859 43.65808594 44.12890625 42.2890625 C32.66163116 25.845638 19.39276709 12.53189398 2.07421875 2.265625 C1.38972656 1.84796875 0.70523438 1.4303125 0 1 C0 0.67 0 0.34 0 0 Z " fill="#554A32" transform="translate(702,197)"/>
<path d="M0 0 C31.35 0 62.7 0 95 0 C95 0.33 95 0.66 95 1 C85.58411271 2.20513349 76.21449757 2.12741368 66.7421875 2.09765625 C64.98528077 2.09578797 63.22837351 2.094366 61.47146606 2.09336853 C56.87828091 2.08957565 52.28512807 2.07977343 47.69195557 2.06866455 C42.99255816 2.05838051 38.29315545 2.05385602 33.59375 2.04882812 C24.39581924 2.03814785 15.19791232 2.02111084 6 2 C5.67 2.99 5.34 3.98 5 5 C6.175625 5.0928125 6.175625 5.0928125 7.375 5.1875 C8.674375 5.5896875 8.674375 5.5896875 10 6 C11.3125 8.5625 11.3125 8.5625 12 11 C7.87740877 9.5449678 4.42945301 7.72797398 1 5 C0.67 3.35 0.34 1.7 0 0 Z " fill="#5481AF" transform="translate(75,205)"/>
<path d="M0 0 C1.52984572 0.00187004 3.05969204 0.00329116 4.58953857 0.00428772 C8.57441931 0.00806685 12.55926235 0.01785659 16.54412842 0.0289917 C20.62707001 0.03930603 24.71001782 0.0438066 28.79296875 0.04882812 C36.77345461 0.05948401 44.75391009 0.07650356 52.734375 0.09765625 C52.734375 0.42765625 52.734375 0.75765625 52.734375 1.09765625 C51.50195068 1.10978653 51.50195068 1.10978653 50.24462891 1.12216187 C42.47686044 1.2003145 34.70927425 1.28766647 26.94172668 1.38518333 C22.94897898 1.4349899 18.95625575 1.48132043 14.96337891 1.51953125 C11.10531629 1.55658277 7.24746652 1.6029947 3.3895874 1.65571976 C1.92254393 1.67415874 0.45545502 1.68930483 -1.01165771 1.70100021 C-8.37592795 1.76177278 -15.1597108 2.02154356 -22.265625 4.09765625 C-25.765625 3.72265625 -25.765625 3.72265625 -28.265625 3.09765625 C-28.265625 3.75765625 -28.265625 4.41765625 -28.265625 5.09765625 C-30.23696486 6.47300964 -32.24244422 7.79976669 -34.265625 9.09765625 C-35.94645579 10.41308904 -37.6180366 11.74081874 -39.265625 13.09765625 C-39.265625 9.09765625 -39.265625 9.09765625 -37.875 7.46484375 C-36.95460938 6.72621094 -36.95460938 6.72621094 -36.015625 5.97265625 C-35.41234375 5.47507813 -34.8090625 4.9775 -34.1875 4.46484375 C-24.77686435 -2.22971413 -11.05952099 -0.04025181 0 0 Z " fill="#557FAA" transform="translate(498.265625,204.90234375)"/>
<path d="M0 0 C0.59063232 0.20625 1.18126465 0.4125 1.78979492 0.625 C1.33991211 0.95371094 0.8900293 1.28242187 0.42651367 1.62109375 C-10.6966637 9.84644936 -20.58315755 18.72245668 -30.21020508 28.625 C-31.20020508 27.965 -32.19020508 27.305 -33.21020508 26.625 C-25.7307088 18.75863323 -18.17054221 11.21516531 -9.52270508 4.625 C-8.85239258 4.10325195 -8.18208008 3.58150391 -7.49145508 3.04394531 C-2.74700564 -0.46607762 -2.74700564 -0.46607762 0 0 Z " fill="#A37740" transform="translate(477.210205078125,607.375)"/>
<path d="M0 0 C0.66 0.33 1.32 0.66 2 1 C-1.63 4.63 -5.26 8.26 -9 12 C15.09 12.33 39.18 12.66 64 13 C64 13.33 64 13.66 64 14 C38.59 14 13.18 14 -13 14 C-10.97291087 9.94582173 -8.70317737 7.65581984 -5.375 4.75 C-4.859375 4.29109375 -4.34375 3.8321875 -3.8125 3.359375 C-2.5465398 2.23407704 -1.27392058 1.11627823 0 0 Z " fill="#868686" transform="translate(761,438)"/>
<path d="M0 0 C0.33 0 0.66 0 1 0 C1 31.68 1 63.36 1 96 C0.01 96 -0.98 96 -2 96 C-2 95.34 -2 94.68 -2 94 C-2.66 93.67 -3.32 93.34 -4 93 C-2.515 92.01 -2.515 92.01 -1 91 C-0.68408958 88.0722886 -0.56263947 85.35170676 -0.56762695 82.41943359 C-0.55233948 81.08763313 -0.55233948 81.08763313 -0.53674316 79.72892761 C-0.50647605 76.78536787 -0.49732637 73.84213277 -0.48828125 70.8984375 C-0.47144472 68.86104234 -0.45329589 66.82365764 -0.43388367 64.7862854 C-0.38626609 59.4170661 -0.35653288 54.04788916 -0.33044434 48.67852783 C-0.30069799 43.20226674 -0.25414743 37.72615181 -0.20898438 32.25 C-0.12281756 21.50007627 -0.05553192 10.75012256 0 0 Z " fill="#202C43" transform="translate(554,433)"/>
<path d="M0 0 C0.66 0.33 1.32 0.66 2 1 C1.36307505 5.59116733 -0.44314367 9.46104805 -2.5 13.5625 C-2.84949707 14.26270264 -3.19899414 14.96290527 -3.55908203 15.68432617 C-7.01642935 22.39200775 -11.29802879 28.11765843 -16 34 C-16.66 34.99 -17.32 35.98 -18 37 C-19.32 37 -20.64 37 -22 37 C-20.4722133 33.56247993 -18.49818944 30.81046312 -16 28 C-15.34 28 -14.68 28 -14 28 C-14 27.01 -14 26.02 -14 25 C-13.01 25 -12.02 25 -11 25 C-11 23.68 -11 22.36 -11 21 C-10.34 21 -9.68 21 -9 21 C-8.67 19.35 -8.34 17.7 -8 16 C-7.34 16 -6.68 16 -6 16 C-6 15.34 -6 14.68 -6 14 C-5.34 14 -4.68 14 -4 14 C-4 12.35 -4 10.7 -4 9 C-3.34 9 -2.68 9 -2 9 C-2.04125 8.071875 -2.0825 7.14375 -2.125 6.1875 C-2 3 -2 3 0 0 Z " fill="#CDAF7D" transform="translate(605,643)"/>
<path d="M0 0 C3.43755599 1.145852 3.67477299 1.64031312 5.41015625 4.640625 C5.84263672 5.38183594 6.27511719 6.12304688 6.72070312 6.88671875 C7.16349609 7.66660156 7.60628906 8.44648438 8.0625 9.25 C8.50916016 10.01441406 8.95582031 10.77882812 9.41601562 11.56640625 C13.94305466 19.40244691 13.94305466 19.40244691 15 23 C14.67 23.99 14.34 24.98 14 26 C13.66790527 25.52691406 13.33581055 25.05382812 12.99365234 24.56640625 C11.45540524 22.37668509 9.91521221 20.18833933 8.375 18 C7.85292969 17.25621094 7.33085938 16.51242188 6.79296875 15.74609375 C3.28279162 10.76250894 -0.31408346 5.8550251 -4 1 C-2.68 1.33 -1.36 1.66 0 2 C0 1.34 0 0.68 0 0 Z " fill="#D6C391" transform="translate(745,239)"/>
<path d="M0 0 C0.33 0 0.66 0 1 0 C1.70245385 10.36119436 2.10936569 20.61025963 2 31 C7.28 31 12.56 31 18 31 C17.67 30.01 17.34 29.02 17 28 C16.9314505 26.10529184 16.91519628 24.2083166 16.9375 22.3125 C16.94652344 21.31863281 16.95554687 20.32476562 16.96484375 19.30078125 C16.97644531 18.54152344 16.98804688 17.78226563 17 17 C17.33 17 17.66 17 18 17 C18.94323854 22.54152641 19 27.22209771 19 33 C12.73 33 6.46 33 0 33 C0 22.11 0 11.22 0 0 Z " fill="#EDD496" transform="translate(573,143)"/>
<path d="M0 0 C-2.96687001 1.64826111 -5.65626525 2.44271087 -9 3 C-9.09999363 7.6997004 -8.801363 12.13635676 -8.12109375 16.7890625 C-7.98046716 19.35663181 -8.49105847 21.48129665 -9 24 C-9.26360869 30.41964704 -9.25374199 36.81662056 -8.375 43.1875 C-8 47 -8 47 -10 50 C-11.32366157 39.63007411 -11.11257926 29.24315985 -11.0625 18.8125 C-11.05747456 16.98372518 -11.0529135 15.15494903 -11.04882812 13.32617188 C-11.03790619 8.88408105 -11.02069923 4.44205559 -11 0 C-6.95600251 -0.75614912 -4.0052897 -1.06022374 0 0 Z " fill="#A06F35" transform="translate(605,438)"/>
<path d="M0 0 C0.66 0.33 1.32 0.66 2 1 C2 1.99 2 2.98 2 4 C2.99 4.33 3.98 4.66 5 5 C6.125 7.4375 6.125 7.4375 7 10 C7.33 10.66 7.66 11.32 8 12 C7.67 12.66 7.34 13.32 7 14 C7.66 14 8.32 14 9 14 C9.91861784 16.75585352 10.12204322 18.3596069 10.11352539 21.19604492 C10.11344986 22.03668991 10.11337433 22.8773349 10.11329651 23.74345398 C10.10813522 24.64666885 10.10297394 25.54988373 10.09765625 26.48046875 C10.0962413 27.40845779 10.09482635 28.33644684 10.09336853 29.29255676 C10.08776937 32.25757058 10.07521704 35.22250899 10.0625 38.1875 C10.05748489 40.19726453 10.052922 42.20703025 10.04882812 44.21679688 C10.03780021 49.14456032 10.02053617 54.07226737 10 59 C9.67 59 9.34 59 9 59 C9 45.8 9 32.6 9 19 C8.34 19 7.68 19 7 19 C6.76925781 18.3709375 6.53851563 17.741875 6.30078125 17.09375 C4.08570446 11.28026783 1.5033751 6.14019789 -2 1 C-1.34 0.67 -0.68 0.34 0 0 Z " fill="#5C7996" transform="translate(107,231)"/>
<path d="M0 0 C-3.31247765 2.03635921 -6.64926787 4.02727459 -10 6 C-10.65613281 6.4021875 -11.31226563 6.804375 -11.98828125 7.21875 C-17.93675333 10.58148368 -24.28788778 11.22237724 -31 12 C-27.93882432 9.37613513 -27.26826873 9 -23 9 C-23 8.34 -23 7.68 -23 7 C-22.21625 6.773125 -21.4325 6.54625 -20.625 6.3125 C-16.65202121 4.87400768 -13.01696085 3.06100738 -9.26953125 1.12109375 C-5.69530464 -0.64448807 -3.78596571 -1.17495488 0 0 Z " fill="#E4C688" transform="translate(554,707)"/>
<path d="M0 0 C0.99 0 1.98 0 3 0 C3 0.99 3 1.98 3 3 C3.66 3.33 4.32 3.66 5 4 C4.34 4.66 3.68 5.32 3 6 C2.67 5.34 2.34 4.68 2 4 C1.67 26.44 1.34 48.88 1 72 C0.67 72 0.34 72 0 72 C0 48.24 0 24.48 0 0 Z " fill="#889AAA" transform="translate(193,332)"/>
<path d="M0 0 C19.14 0 38.28 0 58 0 C58 0.33 58 0.66 58 1 C39.19 1 20.38 1 1 1 C1 1.66 1 2.32 1 3 C1.99 3.33 2.98 3.66 4 4 C3.67 4.99 3.34 5.98 3 7 C1.5 5.75 1.5 5.75 0 4 C0 2.68 0 1.36 0 0 Z " fill="#213454" transform="translate(231,399)"/>
<path d="M0 0 C5.68454786 2.34069618 9.11869085 7.42273197 13 12 C13.64453125 12.75796875 14.2890625 13.5159375 14.953125 14.296875 C18.10078193 18.20938315 18.10078193 18.20938315 19 20 C18.6484375 22.2265625 18.6484375 22.2265625 18 24 C16.68 23.67 15.36 23.34 14 23 C13.814375 21.2984375 13.814375 21.2984375 13.625 19.5625 C13.41875 18.386875 13.2125 17.21125 13 16 C12.34 15.67 11.68 15.34 11 15 C10.62875 14.319375 10.2575 13.63875 9.875 12.9375 C7.57504907 9.33424354 4.74441606 6.69068396 1.64453125 3.76953125 C0 2 0 2 0 0 Z " fill="#DABD7F" transform="translate(727,217)"/>
<path d="M0 0 C0.66 0 1.32 0 2 0 C3.12661871 6.50935252 3.12661871 6.50935252 2.5 8.9375 C1.90657447 11.3853803 2.10805903 13.26089047 2.4375 15.75 C2.53933594 16.54921875 2.64117187 17.3484375 2.74609375 18.171875 C2.82988281 18.77515625 2.91367187 19.3784375 3 20 C0.37886292 20 -1.50935112 19.68707555 -4 19 C-3.34 18.67 -2.68 18.34 -2 18 C-1.71309043 15.32907891 -1.53241953 12.74108285 -1.4375 10.0625 C-1.11790445 2.23580889 -1.11790445 2.23580889 0 0 Z " fill="#CAA970" transform="translate(418,688)"/>
<path d="M0 0 C0.66 0 1.32 0 2 0 C2 0.66 2 1.32 2 2 C3.32 2.33 4.64 2.66 6 3 C6 3.66 6 4.32 6 5 C6.66 5 7.32 5 8 5 C9.95216435 6.95216435 10.84826645 8.53199953 12 11 C12.66 11 13.32 11 14 11 C14 11.66 14 12.32 14 13 C14.66 13 15.32 13 16 13 C15.67 14.32 15.34 15.64 15 17 C14.443125 16.41992188 13.88625 15.83984375 13.3125 15.2421875 C8.5051395 10.32113942 3.65158301 5.92684923 -2 2 C-1.34 1.34 -0.68 0.68 0 0 Z " fill="#7396B7" transform="translate(89,215)"/>
<path d="M0 0 C9.50177779 -0.13329147 16.06720361 3.16969632 24 8 C24 8.99 24 9.98 24 11 C20.56038614 9.54661687 17.12369437 8.08644731 13.6875 6.625 C12.71103516 6.2125 11.73457031 5.8 10.72851562 5.375 C9.32182617 4.77558594 9.32182617 4.77558594 7.88671875 4.1640625 C7.02264404 3.79748535 6.15856934 3.4309082 5.26831055 3.05322266 C3 2 3 2 0 0 Z " fill="#5C5237" transform="translate(677,186)"/>
<path d="M0 0 C-4.62 4.62 -9.24 9.24 -14 14 C-14.99 13.34 -15.98 12.68 -17 12 C-15.25612361 10.20200331 -13.50541018 8.41167703 -11.75 6.625 C-11.25886719 6.11710938 -10.76773437 5.60921875 -10.26171875 5.0859375 C-3.51053139 -1.75526569 -3.51053139 -1.75526569 0 0 Z " fill="#AD8043" transform="translate(461,622)"/>
<path d="M0 0 C0.99 0 1.98 0 3 0 C0.67105263 12.42105263 0.67105263 12.42105263 -2 17 C-2.66 17 -3.32 17 -4 17 C-3.45018084 10.95198929 -2.09570426 5.69398894 0 0 Z " fill="#BA9557" transform="translate(422,671)"/>
<path d="M0 0 C0.99 0 1.98 0 3 0 C3.734375 1.6796875 3.734375 1.6796875 4 4 C2.453125 6.5078125 2.453125 6.5078125 0.25 9.125 C-0.46671875 9.99382812 -1.1834375 10.86265625 -1.921875 11.7578125 C-4 14 -4 14 -7 16 C-5.56835889 12.34061828 -4.01065704 8.76011932 -2.375 5.1875 C-1.92898438 4.21167969 -1.48296875 3.23585938 -1.0234375 2.23046875 C-0.51683594 1.12638672 -0.51683594 1.12638672 0 0 Z " fill="#797977" transform="translate(765,404)"/>
<path d="M0 0 C0.99 0 1.98 0 3 0 C1.45614871 4.14032846 -0.51028938 7.93553053 -2.625 11.8125 C-2.94984375 12.40998047 -3.2746875 13.00746094 -3.609375 13.62304688 C-4.40379151 15.08337135 -5.20155376 16.54187491 -6 18 C-6.66 17.01 -7.32 16.02 -8 15 C-7.67 14.34 -7.34 13.68 -7 13 C-6.34 13 -5.68 13 -5 13 C-4.896875 12.113125 -4.79375 11.22625 -4.6875 10.3125 C-3.98316997 6.91890987 -2.90520689 4.85781033 -1 2 C-0.67 1.34 -0.34 0.68 0 0 Z " fill="#484F63" transform="translate(400,467)"/>
<path d="M0 0 C-1.32 0.33 -2.64 0.66 -4 1 C-4 1.66 -4 2.32 -4 3 C-5.97133986 4.37535339 -7.97681922 5.70211044 -10 7 C-11.68083079 8.31543279 -13.3524116 9.64316249 -15 11 C-15 7 -15 7 -13.609375 5.3671875 C-12.68898438 4.62855469 -12.68898438 4.62855469 -11.75 3.875 C-11.14671875 3.37742188 -10.5434375 2.87984375 -9.921875 2.3671875 C-6.35282751 -0.17176905 -4.2836906 -1.5298895 0 0 Z " fill="#7698B8" transform="translate(474,207)"/>
<path d="M0 0 C0.99 0.66 1.98 1.32 3 2 C3 2.99 3 3.98 3 5 C3.99 5.33 4.98 5.66 6 6 C6 8.31 6 10.62 6 13 C1.3125 9.484375 1.3125 9.484375 0 8 C0 6.68 0 5.36 0 4 C-0.66 4 -1.32 4 -2 4 C-1.34 2.68 -0.68 1.36 0 0 Z " fill="#EBCC8B" transform="translate(735,227)"/>
<path d="M0 0 C0.66 0.33 1.32 0.66 2 1 C0.6077541 5.62675657 -1.29520984 9.64686231 -3.625 13.875 C-4.25664062 15.02742188 -4.88828125 16.17984375 -5.5390625 17.3671875 C-6.02117187 18.23601562 -6.50328125 19.10484375 -7 20 C-7.33 20 -7.66 20 -8 20 C-7.54177532 16.53058454 -7.10868317 13.32604951 -6 10 C-5.34 10 -4.68 10 -4 10 C-3.67 9.01 -3.34 8.02 -3 7 C-2.03010139 4.65314689 -1.01097956 2.32964856 0 0 Z " fill="#728495" transform="translate(459,359)"/>
<path d="M0 0 C0.66 0.33 1.32 0.66 2 1 C2 1.99 2 2.98 2 4 C2.99 4.33 3.98 4.66 5 5 C6.125 7.4375 6.125 7.4375 7 10 C7.33 10.66 7.66 11.32 8 12 C7.67 12.66 7.34 13.32 7 14 C7.66 14 8.32 14 9 14 C8.67 15.65 8.34 17.3 8 19 C7.72027344 18.43152344 7.44054687 17.86304688 7.15234375 17.27734375 C4.34272821 11.72478152 1.25137287 6.30487152 -2 1 C-1.34 0.67 -0.68 0.34 0 0 Z " fill="#819EBA" transform="translate(107,231)"/>
<path d="M0 0 C0.33 0.66 0.66 1.32 1 2 C2.32751522 2.355798 3.66243877 2.68405881 5 3 C6.76770592 3.8168944 8.51746766 4.67343735 10.25 5.5625 C11.14203125 6.01753906 12.0340625 6.47257813 12.953125 6.94140625 C13.96632813 7.46541016 13.96632813 7.46541016 15 8 C15 8.66 15 9.32 15 10 C7.97597192 9.85055259 4.18256853 6.50096088 -1 2 C-0.67 1.34 -0.34 0.68 0 0 Z " fill="#E7CA8A" transform="translate(418,707)"/>
<path d="M0 0 C0.97582031 0.10183594 1.95164062 0.20367188 2.95703125 0.30859375 C3.69308594 0.39238281 4.42914063 0.47617187 5.1875 0.5625 C5.1875 0.8925 5.1875 1.2225 5.1875 1.5625 C2.43912151 2.09357314 -0.31062375 2.61265881 -3.0625 3.125 C-3.83980469 3.27646484 -4.61710937 3.42792969 -5.41796875 3.58398438 C-6.17207031 3.72255859 -6.92617188 3.86113281 -7.703125 4.00390625 C-8.39438477 4.13482666 -9.08564453 4.26574707 -9.79785156 4.40063477 C-12.02537942 4.57960362 -13.68756962 4.21456197 -15.8125 3.5625 C-15.4825 2.9025 -15.1525 2.2425 -14.8125 1.5625 C-13.0625 1 -13.0625 1 -10.8125 0.5625 C-10.06097656 0.37945313 -9.30945313 0.19640625 -8.53515625 0.0078125 C-5.53573128 -0.48276777 -3.01642858 -0.32708262 0 0 Z " fill="#5B6377" transform="translate(502.8125,524.4375)"/>
<path d="M0 0 C0.66 1.32 1.32 2.64 2 4 C1.21654285 5.17219543 0.42297164 6.33763668 -0.375 7.5 C-0.81585938 8.1496875 -1.25671875 8.799375 -1.7109375 9.46875 C-2.34902344 10.22671875 -2.34902344 10.22671875 -3 11 C-3.66 11 -4.32 11 -5 11 C-5.33 12.98 -5.66 14.96 -6 17 C-6.66 16.67 -7.32 16.34 -8 16 C-6.42986223 10.03347646 -3.24970218 5.17090975 0 0 Z " fill="#7B97B2" transform="translate(443,242)"/>
<path d="M0 0 C2.81158409 2.49824489 4.44837831 5.278476 6.25 8.5625 C6.79140625 9.53316406 7.3328125 10.50382813 7.890625 11.50390625 C8.25671875 12.32761719 8.6228125 13.15132812 9 14 C8.67 14.66 8.34 15.32 8 16 C6.5 14.625 6.5 14.625 5 13 C5 12.34 5 11.68 5 11 C4.34 11 3.68 11 3 11 C0 4.5 0 4.5 0 0 Z " fill="#8AA8C3" transform="translate(212,215)"/>
<path d="M0 0 C3.44813854 5.17220781 2.15767747 10.67026703 1 16.5 C0.67433375 18.00168326 0.34372369 19.50234679 0 21 C-0.33 21 -0.66 21 -1 21 C-1.12109311 13.92278069 -0.85373239 7.02804699 0 0 Z " fill="#AF854A" transform="translate(610,612)"/>
<path d="M0 0 C0.99 0.33 1.98 0.66 3 1 C3.6875 3.0625 3.6875 3.0625 4 5 C4.66 5 5.32 5 6 5 C6.83848804 6.45537568 7.67063934 7.91440373 8.5 9.375 C8.9640625 10.18710938 9.428125 10.99921875 9.90625 11.8359375 C11 14 11 14 11 16 C6.81423305 14.60474435 5.81369624 11.67670051 3.8125 8 C3.44447266 7.34515625 3.07644531 6.6903125 2.69726562 6.015625 C0 1.17155612 0 1.17155612 0 0 Z " fill="#584C31" transform="translate(749,242)"/>
<path d="M0 0 C5.43263519 0.63170177 9.14736774 1.89183225 12.8125 6.0625 C14 8 14 8 14 10 C13.01 10 12.02 10 11 10 C11 9.34 11 8.68 11 8 C10.34 8 9.68 8 9 8 C6.875 6.125 6.875 6.125 5 4 C5 3.34 5 2.68 5 2 C3.35 1.67 1.7 1.34 0 1 C0 0.67 0 0.34 0 0 Z " fill="#8BAAC5" transform="translate(198,205)"/>
<path d="M0 0 C0.66 0 1.32 0 2 0 C1.47679633 3.76706644 0.72611199 6.27388801 -2 9 C-3.32 9 -4.64 9 -6 9 C-4.4722133 5.56247993 -2.49818944 2.81046312 0 0 Z " fill="#CFAC6D" transform="translate(589,671)"/>
<path d="M0 0 C2.15178156 2.76387192 3.98370421 5.56533069 5.6875 8.625 C6.34298828 9.78902344 6.34298828 9.78902344 7.01171875 10.9765625 C8 13 8 13 8 15 C5 14 5 14 3.3125 11.6875 C2 9 2 9 2 5 C1.34 5 0.68 5 0 5 C0 3.35 0 1.7 0 0 Z " fill="#86A0B6" transform="translate(237,261)"/>
<path d="M0 0 C1 3 1 3 0.14453125 5.0078125 C-0.29503906 5.70648437 -0.73460937 6.40515625 -1.1875 7.125 C-1.61417969 7.82882812 -2.04085938 8.53265625 -2.48046875 9.2578125 C-4.25479631 11.2921315 -5.36997598 11.62830496 -8 12 C-5.6163187 7.65829477 -3.21880117 3.7935871 0 0 Z " fill="#A78047" transform="translate(443,635)"/>
<path d="M0 0 C1.1484375 1.703125 1.1484375 1.703125 2 4 C1.1015625 6.359375 1.1015625 6.359375 -0.375 8.75 C-0.85710937 9.54921875 -1.33921875 10.3484375 -1.8359375 11.171875 C-2.22007812 11.77515625 -2.60421875 12.3784375 -3 13 C-3.93045933 10.44855176 -4.08564091 9.25993522 -3.22265625 6.640625 C-2.83980469 5.85171875 -2.45695312 5.0628125 -2.0625 4.25 C-1.68222656 3.45078125 -1.30195313 2.6515625 -0.91015625 1.828125 C-0.60980469 1.22484375 -0.30945313 0.6215625 0 0 Z " fill="#454F60" transform="translate(365,531)"/>
<path d="M0 0 C0.66 0.33 1.32 0.66 2 1 C-1.96 4.96 -5.92 8.92 -10 13 C-10.33 12.01 -10.66 11.02 -11 10 C-5.555 5.05 -5.555 5.05 0 0 Z " fill="#595959" transform="translate(761,438)"/>
<path d="M0 0 C0.99 0 1.98 0 3 0 C1.23570801 4.97209562 -1.3939166 9.43438061 -4 14 C-5.125 10.25 -5.125 10.25 -4 8 C-3.34 8 -2.68 8 -2 8 C-1.7834375 6.576875 -1.7834375 6.576875 -1.5625 5.125 C-1 2 -1 2 0 0 Z " fill="#7B8EA1" transform="translate(471,337)"/>
<path d="M0 0 C2.8125 0.5625 2.8125 0.5625 6 2 C7.9375 5.4375 7.9375 5.4375 9 9 C8.67 9.99 8.34 10.98 8 12 C6.66382103 10.18959679 5.33112616 8.3766216 4 6.5625 C3.2575 5.55316406 2.515 4.54382813 1.75 3.50390625 C0 1 0 1 0 0 Z " fill="#D3C9A4" transform="translate(751,253)"/>
<path d="M0 0 C7 8.75 7 8.75 7 13 C3.46011859 11.82003953 2.808388 11.20577872 1 8 C0.46210776 5.32078437 0.22772585 2.73271015 0 0 Z " fill="#849FB8" transform="translate(230,248)"/>
<path d="M0 0 C1.1615882 3.48476459 0.77669581 4.67248371 -0.25 8.125 C-0.50265625 9.01445313 -0.7553125 9.90390625 -1.015625 10.8203125 C-1.50289063 11.89925781 -1.50289063 11.89925781 -2 13 C-2.99 13.33 -3.98 13.66 -5 14 C-4.46515599 8.65155992 -2.53309233 4.64203897 0 0 Z " fill="#BA9254" transform="translate(429,656)"/>
<path d="M0 0 C6.46850394 0.61023622 6.46850394 0.61023622 8.875 2.375 C10 4 10 4 11 7 C6.89188572 5.55007731 3.53144334 3.54592427 0 1 C0 0.67 0 0.34 0 0 Z " fill="#80A2C2" transform="translate(76,209)"/>
<path d="M0 0 C1.46224799 0.42423244 2.91973412 0.86490245 4.375 1.3125 C5.18710937 1.55613281 5.99921875 1.79976562 6.8359375 2.05078125 C9 3 9 3 11 6 C10.01 6.495 10.01 6.495 9 7 C7.08984375 6.328125 7.08984375 6.328125 4.9375 5.25 C4.22464844 4.90453125 3.51179687 4.5590625 2.77734375 4.203125 C1 3 1 3 0 0 Z " fill="#504832" transform="translate(691,190)"/>
<path d="M0 0 C0 3.10981343 -0.46713709 4.39396369 -1.8125 7.125 C-2.14894531 7.82882812 -2.48539062 8.53265625 -2.83203125 9.2578125 C-4 11 -4 11 -7 12 C-5.77759242 7.95665186 -4.39561694 4.49360803 -2 1 C-1.34 0.67 -0.68 0.34 0 0 Z " fill="#485066" transform="translate(349,418)"/>
<path d="M0 0 C0.99 0 1.98 0 3 0 C1.55049545 3.7910119 -0.15172566 7.3874638 -2 11 C-2.66 10.01 -3.32 9.02 -4 8 C-2.66666667 5.33333333 -1.33333333 2.66666667 0 0 Z " fill="#717E91" transform="translate(433,406)"/>
<path d="M0 0 C4.62 0 9.24 0 14 0 C14 0.33 14 0.66 14 1 C9.71 1 5.42 1 1 1 C1 1.66 1 2.32 1 3 C1.99 3.33 2.98 3.66 4 4 C3.67 4.99 3.34 5.98 3 7 C1.5 5.75 1.5 5.75 0 4 C0 2.68 0 1.36 0 0 Z " fill="#33415A" transform="translate(231,399)"/>
<path d="M0 0 C0.33 0 0.66 0 1 0 C1.36444983 4.25191465 0.56111503 6.58517997 -2 10 C-2.99 10.33 -3.98 10.66 -5 11 C-3.77782954 6.95743617 -2.37245704 3.50711041 0 0 Z " fill="#829BB3" transform="translate(434,258)"/>
<path d="M0 0 C0 0.66 0 1.32 0 2 C0.99 2 1.98 2 3 2 C3.33 3.65 3.66 5.3 4 7 C0.63408134 5.55746343 -1.51047079 3.66735273 -4 1 C-2 0 -2 0 0 0 Z " fill="#7CA0BF" transform="translate(91,215)"/>
<path d="M0 0 C1.125 3.75 1.125 3.75 0 6 C-0.66 6 -1.32 6 -2 6 C-2.33 7.65 -2.66 9.3 -3 11 C-3.66 11 -4.32 11 -5 11 C-3.77472971 6.94718288 -2.30119506 3.55639236 0 0 Z " fill="#829EB8" transform="translate(449,231)"/>
<path d="M0 0 C0.88672454 2.4828287 1.14518218 3.62029277 0.1875 6.125 C-1 8 -1 8 -3 10 C-4 7 -4 7 -3.22265625 5.17578125 C-2.1484375 3.45052083 -1.07421875 1.72526042 0 0 Z " fill="#7C99B6" transform="translate(454,222)"/>
<path d="M0 0 C1.66842534 0.32441604 3.33480481 0.65939189 5 1 C6.11375 1.185625 6.11375 1.185625 7.25 1.375 C7.8275 1.58125 8.405 1.7875 9 2 C9.33 2.99 9.66 3.98 10 5 C6.37 4.01 2.74 3.02 -1 2 C-0.67 1.34 -0.34 0.68 0 0 Z " fill="#5E543A" transform="translate(666,181)"/>
<path d="M0 0 C1.32 0 2.64 0 4 0 C3.67 0.99 3.34 1.98 3 3 C-0.63 3.66 -4.26 4.32 -8 5 C-4 2 -4 2 0 2 C0 1.34 0 0.68 0 0 Z " fill="#E4C074" transform="translate(531,714)"/>
<path d="M0 0 C0.66 0.99 1.32 1.98 2 3 C1.01 4.98 0.02 6.96 -1 9 C-1.66 9 -2.32 9 -3 9 C-2.5020163 5.26512223 -2.12508244 3.18762365 0 0 Z " fill="#C7A05D" transform="translate(421,679)"/>
<path d="M0 0 C0.66 0 1.32 0 2 0 C5.22265625 5.2734375 5.22265625 5.2734375 6 7 C5.67 7.66 5.34 8.32 5 9 C4.01 8.67 3.02 8.34 2 8 C0.5522078 5.10441559 0 3.25811062 0 0 Z " fill="#3F495C" transform="translate(320,417)"/>
<path d="M0 0 C1.98 0 3.96 0 6 0 C6 1.65 6 3.3 6 5 C4.02 4.34 2.04 3.68 0 3 C0 2.01 0 1.02 0 0 Z " fill="#7899B3" transform="translate(70,204)"/>
<path d="M0 0 C0.66 0.33 1.32 0.66 2 1 C0.84414715 4.91211733 -0.35534962 7.8745041 -3 11 C-3 9.35 -3 7.7 -3 6 C-2.34 6 -1.68 6 -1 6 C-1.0309375 4.7934375 -1.0309375 4.7934375 -1.0625 3.5625 C-1 1 -1 1 0 0 Z " fill="#596072" transform="translate(372,519)"/>
<path d="M0 0 C2.70608417 1.35304209 2.96183047 2.80966544 4.125 5.5625 C4.47820312 6.38878906 4.83140625 7.21507812 5.1953125 8.06640625 C5.46085938 8.70449219 5.72640625 9.34257812 6 10 C5.01 10 4.02 10 3 10 C0.96564469 6.27034861 0 4.33094958 0 0 Z " fill="#454C5D" transform="translate(239,413)"/>
<path d="M0 0 C5.27293578 6.95068807 5.27293578 6.95068807 5 12 C1.75254486 7.86687528 0 5.36067372 0 0 Z " fill="#76889B" transform="translate(204,348)"/>
<path d="M0 0 C0.6875 1.6875 0.6875 1.6875 1 4 C-0.3125 6.75 -0.3125 6.75 -2 9 C-2.66 9 -3.32 9 -4 9 C-2.94124926 5.59687262 -1.99097846 2.98646769 0 0 Z " fill="#778EA3" transform="translate(408,306)"/>
<path d="M0 0 C0.33 0 0.66 0 1 0 C1.33 2.97 1.66 5.94 2 9 C2.99 9.33 3.98 9.66 5 10 C3.35 10.33 1.7 10.66 0 11 C0 7.37 0 3.74 0 0 Z " fill="#08112A" transform="translate(477,520)"/>
<path d="M0 0 C0.6875 1.6875 0.6875 1.6875 1 4 C-0.3125 6.75 -0.3125 6.75 -2 9 C-2.66 9 -3.32 9 -4 9 C-2.94124926 5.59687262 -1.99097846 2.98646769 0 0 Z " fill="#7B92A8" transform="translate(413,297)"/>
<path d="M0 0 C2.64465038 3.1254959 3.84414715 6.08788267 5 10 C2 9 2 9 0.8125 7.25 C-0.10819096 4.70039426 -0.14948718 2.69076919 0 0 Z " fill="#88A4BE" transform="translate(221,231)"/>
<path d="M0 0 C3.0916909 2.52956528 3.90931332 5.22454612 5 9 C2 8 2 8 0.8125 6.1875 C0 4 0 4 0 0 Z " fill="#8194A9" transform="translate(260,304)"/>
<path d="M0 0 C0.66 0.33 1.32 0.66 2 1 C2 3.31 2 5.62 2 8 C-2.875 3.25 -2.875 3.25 -4 1 C-2.68 1.33 -1.36 1.66 0 2 C0 1.34 0 0.68 0 0 Z " fill="#E5CE9B" transform="translate(745,239)"/>
<path d="M0 0 C6.75 0.75 6.75 0.75 9 3 C6.45297384 4.27351308 5.5717055 3.80191925 2.875 3.0625 C2.15054688 2.86785156 1.42609375 2.67320312 0.6796875 2.47265625 C0.12539062 2.31667969 -0.42890625 2.16070312 -1 2 C-0.67 1.34 -0.34 0.68 0 0 Z " fill="#618AB1" transform="translate(194,205)"/>
<path d="M0 0 C0.66 0.33 1.32 0.66 2 1 C0.90931332 4.77545388 0.0916909 7.47043472 -3 10 C-2.67 8.02 -2.34 6.04 -2 4 C-1.34 4 -0.68 4 0 4 C0 2.68 0 1.36 0 0 Z " fill="#5D6876" transform="translate(427,418)"/>
<path d="M0 0 C0.66 1.32 1.32 2.64 2 4 C-0.97 6.475 -0.97 6.475 -4 9 C-2.80100302 5.9168649 -1.52299523 2.93720508 0 0 Z " fill="#B8B8B8" transform="translate(762,411)"/>
<path d="M0 0 C0.88492145 2.47778006 1.11637742 3.66056586 0.25 6.1875 C-1 8 -1 8 -4 9 C-2.94124926 5.59687262 -1.99097846 2.98646769 0 0 Z " fill="#8492A4" transform="translate(370,376)"/>
<path d="M0 0 C0.88492145 2.47778006 1.11637742 3.66056586 0.25 6.1875 C-1 8 -1 8 -4 9 C-2.94124926 5.59687262 -1.99097846 2.98646769 0 0 Z " fill="#7B8C9D" transform="translate(376,365)"/>
<path d="M0 0 C0.88492145 2.47778006 1.11637742 3.66056586 0.25 6.1875 C-1 8 -1 8 -4 9 C-2.94124926 5.59687262 -1.99097846 2.98646769 0 0 Z " fill="#7E97AD" transform="translate(426,273)"/>
<path d="M0 0 C0.66 0 1.32 0 2 0 C3.0625 2.375 3.0625 2.375 4 5 C3.67 5.66 3.34 6.32 3 7 C2.34 7 1.68 7 1 7 C0.67 4.69 0.34 2.38 0 0 Z " fill="#DBBF85" transform="translate(746,240)"/>
<path d="M0 0 C0.33 0 0.66 0 1 0 C1.33 2.97 1.66 5.94 2 9 C1.01 9.495 1.01 9.495 0 10 C-0.74926071 6.33694766 -1.2380014 3.57644848 0 0 Z " fill="#E4BD6C" transform="translate(419,699)"/>
<path d="M0 0 C0.66 0 1.32 0 2 0 C0.25 5.75 0.25 5.75 -2 8 C-2.125 5.125 -2.125 5.125 -2 2 C-1.34 1.34 -0.68 0.68 0 0 Z " fill="#738595" transform="translate(447,382)"/>
<path d="M0 0 C1 2 1 2 0.25 5.0625 C-0.1625 6.031875 -0.575 7.00125 -1 8 C-1.99 8.33 -2.98 8.66 -4 9 C-2.94124926 5.59687262 -1.99097846 2.98646769 0 0 Z " fill="#8293A4" transform="translate(381,356)"/>
<path d="M0 0 C1 2 1 2 0.25 5.0625 C-0.1625 6.031875 -0.575 7.00125 -1 8 C-1.99 8.33 -2.98 8.66 -4 9 C-2.94124926 5.59687262 -1.99097846 2.98646769 0 0 Z " fill="#8AA0B5" transform="translate(421,282)"/>
<path d="M0 0 C3.60654039 2.40436026 3.85452932 3.94679607 5 8 C2 7 2 7 0.8125 5.125 C0 3 0 3 0 0 Z " fill="#49422F" transform="translate(755,250)"/>
<path d="M0 0 C2.31 0.66 4.62 1.32 7 2 C7.33 3.32 7.66 4.64 8 6 C6.66402348 5.19185349 5.331275 4.37836819 4 3.5625 C3.2575 3.11003906 2.515 2.65757812 1.75 2.19140625 C1.1725 1.79824219 0.595 1.40507812 0 1 C0 0.67 0 0.34 0 0 Z " fill="#5D4F35" transform="translate(710,202)"/>
</svg>
